<?xml version="1.0" encoding="UTF-8"?> <svg xmlns="http://www.w3.org/2000/svg" xmlns:xlink="http://www.w3.org/1999/xlink" id="Layer_1" data-name="Layer 1" viewBox="0 0 302.64 128.81"><defs><style>.cls-1{fill:#fff;}.cls-2{fill:url(#linear-gradient);}.cls-3{opacity:0.32;}.cls-4{fill:url(#linear-gradient-2);}.cls-5{fill:#002fb8;}.cls-6{fill:#ffd792;}.cls-7{fill:#001781;}.cls-8{fill:#ffaf5d;}.cls-9{fill:#f99c31;}.cls-10{fill:#d9892c;}.cls-11{fill:#a15900;}.cls-12{fill:#e3902f;}.cls-13{fill:#e79230;}.cls-14{fill:#bb7525;}.cls-15{fill:#9e6100;}.cls-16{fill:#e18e2e;}.cls-17{fill:#dd8c2d;}.cls-18{fill:#e88c31;}.cls-19{fill:#c97e2e;}.cls-20{fill:#e5843c;}.cls-21{fill:#f96f31;}.cls-22{fill:#f97615;}.cls-23{fill:#170200;}.cls-24{fill:#190300;}.cls-25{fill:#1c0300;}.cls-26{fill:#ef851b;opacity:0.9;isolation:isolate;}.cls-27{fill:#ffa64d;}.cls-28{fill:#dd6e0a;}.cls-29{fill:#fecf8c;}.cls-30{fill:#df7600;}</style><linearGradient id="linear-gradient" x1="2.37" y1="212.03" x2="3.37" y2="212.03" gradientTransform="matrix(113.94, 0, 0, -115.79, -88.46, 24615.13)" gradientUnits="userSpaceOnUse"><stop offset="0" stop-color="#fff"></stop><stop offset="1"></stop></linearGradient><linearGradient id="linear-gradient-2" x1="2.33" y1="212.41" x2="3.76" y2="211.37" gradientTransform="matrix(112.94, 0, 0, -114.8, -86.98, 24402.11)" gradientUnits="userSpaceOnUse"><stop offset="0" stop-color="#000257"></stop><stop offset="0.01" stop-color="#090b5d"></stop><stop offset="0.05" stop-color="#37387b"></stop><stop offset="0.09" stop-color="#626397"></stop><stop offset="0.14" stop-color="#8788b0"></stop><stop offset="0.2" stop-color="#a8a9c5"></stop><stop offset="0.25" stop-color="#c3c4d7"></stop><stop offset="0.32" stop-color="#d9d9e6"></stop><stop offset="0.4" stop-color="#eaeaf1"></stop><stop offset="0.49" stop-color="#f6f6f9"></stop><stop offset="0.63" stop-color="#fdfdfd"></stop><stop offset="1" stop-color="#fff"></stop></linearGradient></defs><g id="Group_53" data-name="Group 53"><g id="Group_14" data-name="Group 14"><g id="Layer_22" data-name="Layer 22"><g id="Group_12" data-name="Group 12"><g id="Group_1" data-name="Group 1"><ellipse id="Ellipse_1" data-name="Ellipse 1" class="cls-1" cx="238.52" cy="64.56" rx="56.47" ry="57.4"></ellipse><path id="Path_1" data-name="Path 1" class="cls-2" d="M238.51,122.46c-31.41,0-57-26-57-57.9s25.55-57.89,57-57.89,57,26,57,57.89S269.93,122.46,238.51,122.46Zm0-114.8c-30.86,0-56,25.52-56,56.9s25.11,56.9,56,56.9,56-25.53,56-56.9-25.11-56.9-56-56.9Z"></path></g><g id="Group_2" data-name="Group 2" class="cls-3"><ellipse id="Ellipse_2" data-name="Ellipse 2" class="cls-4" cx="238.5" cy="64.51" rx="56.47" ry="57.4"></ellipse><path id="Path_2" data-name="Path 2" class="cls-5" d="M238.5,122.4c-31.41,0-57-26-57-57.89s25.56-57.89,57-57.89,57,26,57,57.89S269.91,122.4,238.5,122.4Zm0-114.8c-30.86,0-56,25.53-56,56.9s25.12,56.9,56,56.9,56-25.52,56-56.9-25.11-56.89-56-56.89Z"></path></g><path id="Path_3" data-name="Path 3" class="cls-6" d="M279.84,46.82s3.39-.2,2.54,5.6c0,.8,5.92,11.17.14,27.32C283,80,270,105.06,237.8,103.41c-.56.12-15-2.82-26.24,8.07v0c-.14.2-7.4-4-12.73-9.12a42.79,42.79,0,0,1-8.32-11.31l2.42-1s30.67,2.3,38.61-.31c-.63,0,15.47-5.37,15.47-5.37l6.74-7.07-.69-3.83.35-4.62,1.9-5,7.5-5.9,6.35-10.61,7.58-1.22Z"></path><path id="Path_4" data-name="Path 4" class="cls-7" d="M238.65,126.09c-33.64,0-61-27.81-61-62A62.67,62.67,0,0,1,186,32.84,60.76,60.76,0,0,1,238.65,2.09c33.64,0,61,27.82,61,62S272.29,126.09,238.65,126.09Zm0-122.52c-32.82,0-59.51,27.15-59.51,60.52s26.7,60.52,59.51,60.52,59.51-27.15,59.51-60.52S271.47,3.57,238.65,3.57Z"></path><path id="Path_5" data-name="Path 5" class="cls-8" d="M190.91,89.71l1.9,2h3.63l-.59-2.08Z"></path><path id="Rectangle_1" data-name="Rectangle 1" class="cls-9" d="M258.58,46.69h0a.8.8,0,0,1,.81.8v2.22a.81.81,0,0,1-.81.81h0a.8.8,0,0,1-.8-.81V47.49A.8.8,0,0,1,258.58,46.69Z"></path><path id="Path_6" data-name="Path 6" class="cls-9" d="M258.48,48.26v1.09a.17.17,0,0,1-.16.17h0a.17.17,0,0,1-.17-.17V48.26a.17.17,0,0,1,.17-.17A.17.17,0,0,1,258.48,48.26Z"></path><path id="Path_7" data-name="Path 7" class="cls-9" d="M261.26,29.21v.07c0,.91-.43,1.64-.88,1.62s-.7-.6-.74-1.35l-.84.17V30c-.05,1-.53,1.83-1.09,1.81s-.9-.75-.93-1.66l-.58.12v.18c0,1-.53,1.86-1.18,1.86s-1.08-.67-1.18-1.56l-.4.08a.17.17,0,0,1,0,.1c0,1-.53,1.87-1.18,1.87s-1-.64-1.17-1.49l-.51.1c0,.14,0,.27,0,.4,0,1-.53,1.87-1.18,1.87s-1.16-.79-1.19-1.78l-.78.16a2,2,0,0,1,0,.25c0,1-.53,1.86-1.19,1.86s-1.1-.71-1.18-1.63l-1.11.23v0c0,1-.53,1.86-1.19,1.86s-1-.6-1.15-1.41h0l-.4.08Q241.1,50.16,241,67l15.55-1.82,6,.12V29ZM259,49.49a.48.48,0,0,1-.45.52.49.49,0,0,1-.52-.46V47.71a.49.49,0,0,1,.49-.5.48.48,0,0,1,.34.14.54.54,0,0,1,.14.36Z"></path><path id="Path_8" data-name="Path 8" class="cls-10" d="M262.49,29l17.35,3.09V48.53s-5.57-.52-7.9.88-6.4,7.8-7.33,12.07-2.12,3.82-2.12,3.82Z"></path><path id="Path_9" data-name="Path 9" class="cls-11" d="M255.43,48.17c0-5.47-6-5.72-6.9,0V62.6h6.9Z"></path><path id="Path_10" data-name="Path 10" class="cls-12" d="M254.92,62.25,255,48.6c-.14-3.65-3.16-4.09-3.47-.81l-.12,14.46Z"></path><path id="Path_11" data-name="Path 11" class="cls-11" d="M249.42,37.35a.85.85,0,0,1,.61-.54l3.57-.39s.66-.15.8.68c0,0,.19,5.2.19,5.2s.19.44-.76.64c0,.05-3.33.54-3.33.54s-.52.34-.8-.64Z"></path><path id="Path_12" data-name="Path 12" class="cls-13" d="M250.45,38.33v3.29s.45.93.67,0c0,0,0-3.29,0-3.29S251,37.69,250.45,38.33Z"></path><path id="Path_13" data-name="Path 13" class="cls-13" d="M251.91,38v3.67s.45,1,.67,0c0,0,0-3.67,0-3.67S252.48,37.25,251.91,38Z"></path><path id="Path_14" data-name="Path 14" class="cls-13" d="M253.07,37.68v3.86s.45,1.1.67,0c0,0,0-3.86,0-3.86S253.63,36.93,253.07,37.68Z"></path><path id="Path_15" data-name="Path 15" class="cls-9" d="M258.48,48.26v1.09a.17.17,0,0,1-.16.17h0a.17.17,0,0,1-.17-.17V48.26a.17.17,0,0,1,.17-.17A.17.17,0,0,1,258.48,48.26Z"></path><path id="Path_16" data-name="Path 16" class="cls-9" d="M259.8,47.05a1.16,1.16,0,0,0-.84-.36h-.12a1.21,1.21,0,0,0-1.06,1.22v1.95a1.22,1.22,0,0,0,1.06,1.23H259a1.19,1.19,0,0,0,1.18-1.23V47.93A1.25,1.25,0,0,0,259.8,47.05Zm-1.33,3a.49.49,0,0,1-.48-.51V47.71a.48.48,0,0,1,.48-.5.47.47,0,0,1,.35.15.5.5,0,0,1,.14.35v1.78a.5.5,0,0,1-.48.51Z"></path><path id="Path_17" data-name="Path 17" class="cls-1" d="M258.48,48.26v1.09a.17.17,0,0,1-.16.17h0a.17.17,0,0,1-.17-.17V48.26a.17.17,0,0,1,.17-.17A.17.17,0,0,1,258.48,48.26Z"></path><path id="Path_18" data-name="Path 18" class="cls-11" d="M259.56,47.05a1.17,1.17,0,0,0-.72-.35h-.12a1.22,1.22,0,0,0-1.18,1.23v1.95a1.21,1.21,0,0,0,1.18,1.23h.12a1.21,1.21,0,0,0,1.06-1.23V47.93A1.29,1.29,0,0,0,259.56,47.05Zm-.6,2.44a.5.5,0,0,1-.46.52.49.49,0,0,1-.52-.46V47.71a.5.5,0,0,1,.49-.5.48.48,0,0,1,.34.14.51.51,0,0,1,.15.36Z"></path><path id="Path_19" data-name="Path 19" class="cls-11" d="M263.32,46.76a1.12,1.12,0,0,0-.83-.36,1.19,1.19,0,0,0-1.18,1.23v1.95a1.21,1.21,0,0,0,1.18,1.23h.12a1.21,1.21,0,0,0,1.06-1.22v-2A1.21,1.21,0,0,0,263.32,46.76Zm-.6,2.44a.48.48,0,0,1-.48.49.49.49,0,0,1-.49-.49V47.42a.5.5,0,0,1,.49-.51.45.45,0,0,1,.34.15.52.52,0,0,1,.14.36Z"></path><path id="Path_20" data-name="Path 20" class="cls-11" d="M246.66,48.45a1.15,1.15,0,0,0-.83-.36,1.21,1.21,0,0,0-1.19,1.23v2a1.21,1.21,0,0,0,1.19,1.23H246A1.22,1.22,0,0,0,247,51.27v-2A1.23,1.23,0,0,0,246.66,48.45Zm-.6,2.44a.49.49,0,1,1-1,.06V49.11a.48.48,0,0,1,.83-.36.54.54,0,0,1,.14.36Z"></path><path id="Path_21" data-name="Path 21" class="cls-11" d="M243,49a1.16,1.16,0,0,0-.84-.36A1.22,1.22,0,0,0,241,49.84v1.94A1.21,1.21,0,0,0,242.16,53h.12a1.21,1.21,0,0,0,1.06-1.23v-2A1.29,1.29,0,0,0,243,49Zm-.6,2.45a.49.49,0,0,1-.49.48.48.48,0,0,1-.48-.48V49.62a.48.48,0,0,1,.48-.5.45.45,0,0,1,.34.15.47.47,0,0,1,.15.35Z"></path><path id="Path_22" data-name="Path 22" class="cls-1" d="M258.48,48.26v1.09a.17.17,0,0,1-.16.17h0a.17.17,0,0,1-.17-.17V48.26a.17.17,0,0,1,.17-.17A.17.17,0,0,1,258.48,48.26Z"></path><path id="Path_23" data-name="Path 23" class="cls-11" d="M258.48,48.26v1.09a.17.17,0,0,1-.16.17h0a.17.17,0,0,1-.17-.17V48.26a.17.17,0,0,1,.17-.17A.17.17,0,0,1,258.48,48.26Z"></path><path id="Path_24" data-name="Path 24" class="cls-11" d="M262.24,47.76v1.1a.16.16,0,1,1-.32,0v-1.1a.16.16,0,1,1,.32,0Z"></path><path id="Path_25" data-name="Path 25" class="cls-11" d="M245.59,49.46v1.09a.15.15,0,0,1-.15.17.17.17,0,0,1-.18-.15V49.46a.17.17,0,0,1,.33,0Z"></path><path id="Path_26" data-name="Path 26" class="cls-11" d="M242.08,50v1.1a.16.16,0,0,1-.15.17.17.17,0,0,1-.18-.15V50a.16.16,0,0,1,.15-.17.17.17,0,0,1,.18.15v0Z"></path><path id="Path_27" data-name="Path 27" class="cls-14" d="M248.24,61.17h-.68a.57.57,0,0,0-.56.57l0,1.48a.56.56,0,0,1-.54.57l-1.74.07a.58.58,0,0,0-.54.6h0l.07,1.33a.58.58,0,0,1-.52.61l-2.23.18a.57.57,0,0,1-.59-.49l0-.3a.57.57,0,0,0-.55-.49h-3.61a.57.57,0,0,1-.56-.52l-.2-2a.56.56,0,0,0-.55-.52h-4a.57.57,0,0,0-.56.57l-.19,11.07a.55.55,0,0,0,.53.59.65.65,0,0,0,.2,0l6.76-2.35a.5.5,0,0,1,.32,0l2.31.63a.54.54,0,0,0,.43-.07l1.2-.76a.38.38,0,0,1,.13-.06l3-.9.17-.08,1.32-1,.07,0L250,68.32a.67.67,0,0,0,.22-.19l1.28-1.95a.59.59,0,0,0-.14-.81.6.6,0,0,0-.43-.09l-1.36.28a.56.56,0,0,1-.65-.45.41.41,0,0,1,0-.11l-.08-3.26A.57.57,0,0,0,248.24,61.17Z"></path><path id="Path_28" data-name="Path 28" class="cls-9" d="M255.91,64.52l1,.14c.5.07,1,.12,1.46.15a6.46,6.46,0,0,0-3.1,2.62,10.22,10.22,0,0,0-1,3.18.87.87,0,0,1-.06.32,1.2,1.2,0,0,1-.42.55c-.05.23-.09.47-.12.71a11.1,11.1,0,0,0,.27,4.37l-.07.14A26.43,26.43,0,0,1,245.52,87l-.38.27c-2.17,1.5-4.17,2.11-9.85,3.27-4.67.94-5,.85-5,.78s.25-.22.51-.33c.06-.43.11-.83.12-.83s-.06.2,0,.29.87,0,3-.94l-.09-4.33c0-2.16-.09-4.33-.11-4.34A2.43,2.43,0,0,0,232,78.23a1.29,1.29,0,0,1-.51-.14,1.41,1.41,0,0,1-.52-.48c0-2.11,0-4.23,0-6.38q0-3.48,0-6.9a.48.48,0,0,1,.3-.5s4.32-.1,4.36-.08a.48.48,0,0,1,.57.34.61.61,0,0,1,0,.14l.07,4.64c.19.62.6.56.6.56h2.54a.45.45,0,0,1,.53.36.43.43,0,0,1,0,0v.54c.16.42.37.33.37.33s2.18,0,2.16,0a.41.41,0,0,0,.4-.4V68.63a.14.14,0,0,0,0-.09.49.49,0,0,1,.36-.4l3.78,0a.91.91,0,0,0,.8-.71s0-1.77,0-1.79a.76.76,0,0,1,.62-.6l2.63,0a.65.65,0,0,0,.58-.5s.05-1.55.06-1.57c.07-.33.55-.3.55-.3h3.18Z"></path><g id="Group_3" data-name="Group 3"><path id="Path_29" data-name="Path 29" class="cls-11" d="M234.5,89.87,230.8,91l-.92-14.72a2,2,0,0,1,1.83-2.17h.12a1.84,1.84,0,0,1,1.8,1.76Z"></path><path id="Path_30" data-name="Path 30" class="cls-15" d="M230.57,91.28l-.94-15a2.27,2.27,0,0,1,2.06-2.44,2.09,2.09,0,0,1,2.18,2l.89,14.25Zm1.26-17h-.11a1.78,1.78,0,0,0-1.59,1.91l.9,14.41,3.21-.94-.86-13.85a1.6,1.6,0,0,0-1.55-1.53Z"></path></g><path id="Path_31" data-name="Path 31" class="cls-14" d="M230.91,91.19l-4.33.59V56.55h4.33Z"></path><path id="Path_32" data-name="Path 32" class="cls-9" d="M226.58,91.78H213.46V58.38l13.12-1.83Z"></path><path id="Rectangle_2" data-name="Rectangle 2" class="cls-11" d="M220.8,68.69h0a2,2,0,0,1,2,2v9.23h-4.5V71.22a2.53,2.53,0,0,1,2.53-2.53Z"></path><path id="Rectangle_3" data-name="Rectangle 3" class="cls-16" d="M221.57,70.31h0a1,1,0,0,1,1,1v8.27h-2.33v-7.9A1.34,1.34,0,0,1,221.57,70.31Z"></path><path id="Rectangle_4" data-name="Rectangle 4" class="cls-17" d="M219.82,60.81h0a1.56,1.56,0,0,1,1.56,1.56v2a1.56,1.56,0,0,1-1.56,1.56h0a1.55,1.55,0,0,1-1.55-1.56v-2A1.55,1.55,0,0,1,219.82,60.81Z"></path><path id="Rectangle_5" data-name="Rectangle 5" class="cls-11" d="M219.89,61h0a1.31,1.31,0,0,1,1.31,1.31v1.26a1.3,1.3,0,0,1-1.31,1.31h0a1.31,1.31,0,0,1-1.31-1.31V62.27A1.31,1.31,0,0,1,219.89,61Z"></path><path id="Rectangle_6" data-name="Rectangle 6" class="cls-9" d="M220,61.37h0a.91.91,0,0,1,.91.91v.65a.9.9,0,0,1-.91.9h0a.9.9,0,0,1-.9-.9v-.65A.9.9,0,0,1,220,61.37Z"></path><path id="Path_33" data-name="Path 33" class="cls-18" d="M217.91,78.62h-5.58V80.9h-4.72v2h-3.88v1.67h-3.6v1.28h-3v1.63H194v1.45h-3.17v.76h10.09l17-7.3Z"></path><path id="Path_34" data-name="Path 34" class="cls-19" d="M223.41,79.88h-7.13v2.78h-5.92v1.89H207v1.94h-4.23v1h-2.82v1.6h-4.17v1.47h-2.82v1.25h30.48Z"></path><path id="Path_35" data-name="Path 35" class="cls-9" d="M222,83.91s-2.37,1.18-2.17,2.76c0,.11,0,3,0,3H222Z"></path><g id="Group_4" data-name="Group 4"><path id="Path_36" data-name="Path 36" class="cls-11" d="M239.47,88.59l-3.7,1.09L234.86,75a2,2,0,0,1,1.83-2.17h.12a1.85,1.85,0,0,1,1.8,1.76Z"></path><path id="Path_37" data-name="Path 37" class="cls-15" d="M235.54,90l-.93-15a2.26,2.26,0,0,1,2.06-2.43h.13a2.1,2.1,0,0,1,2,2l.88,14.25Zm1.26-17h-.1a1.77,1.77,0,0,0-1.6,1.91l.9,14.41,3.22-.95-.87-13.85A1.58,1.58,0,0,0,236.8,73Z"></path></g><g id="Group_5" data-name="Group 5"><path id="Path_38" data-name="Path 38" class="cls-11" d="M245.43,85.41a26.9,26.9,0,0,1-3.37,2l-.27,0-.82-13a2,2,0,0,1,1.83-2.17h.12a1.83,1.83,0,0,1,1.8,1.76Z"></path><path id="Path_39" data-name="Path 39" class="cls-15" d="M241.55,87.73l-.83-13.24a2.28,2.28,0,0,1,2.06-2.43h.14a2.08,2.08,0,0,1,2,2l.72,11.49-.11.08a28.67,28.67,0,0,1-3.4,2l-.1,0Zm1.37-15.18h-.1a1.77,1.77,0,0,0-1.6,1.91l.8,12.73a28.61,28.61,0,0,0,3.15-1.9l-.7-11.22A1.58,1.58,0,0,0,242.92,72.55Z"></path></g><g id="Group_6" data-name="Group 6"><path id="Path_40" data-name="Path 40" class="cls-11" d="M250.11,81.36a33.22,33.22,0,0,1-3.52,3.19h-.05l-.77-12.27a2,2,0,0,1,1.83-2.17h.12a1.82,1.82,0,0,1,1.79,1.75Z"></path><path id="Path_41" data-name="Path 41" class="cls-15" d="M246.3,84.82l-.78-12.52a2.28,2.28,0,0,1,2.06-2.44h.14a2.08,2.08,0,0,1,2,2l.6,9.6-.07.08a32.85,32.85,0,0,1-3.55,3.22l-.05,0Zm1.42-14.47h-.11A1.78,1.78,0,0,0,246,72.26l.74,11.84a33.34,33.34,0,0,0,3.1-2.84l-.59-9.39A1.59,1.59,0,0,0,247.72,70.35Z"></path></g><g id="Group_7" data-name="Group 7"><path id="Path_42" data-name="Path 42" class="cls-11" d="M253.88,76.56l-.06.14a31.84,31.84,0,0,1-2.31,3.09l-.49,0-.62-9.94a2,2,0,0,1,1.83-2.17h.12a1.83,1.83,0,0,1,1.8,1.75l.07,1.15,0-.25h0a9.87,9.87,0,0,0-.6,2.16A9.51,9.51,0,0,0,253.88,76.56Z"></path><path id="Path_43" data-name="Path 43" class="cls-15" d="M250.79,80.09l-.64-10.2a2.27,2.27,0,0,1,2.06-2.43h.14a2.09,2.09,0,0,1,2,1.82h0l.08,1.33h-.1a9.35,9.35,0,0,0-.52,2,9.1,9.1,0,0,0,.28,4l0,.09-.11.23A34.11,34.11,0,0,1,251.69,80l-.07.08ZM252.35,68h-.11a1.77,1.77,0,0,0-1.59,1.91l.6,9.7h.13a32,32,0,0,0,2.22-3l0,0a9.65,9.65,0,0,1-.27-4.07,9,9,0,0,1,.6-2.16l0-.83A1.6,1.6,0,0,0,252.35,68Z"></path></g><path id="Path_44" data-name="Path 44" class="cls-11" d="M243.2,40.89a1.09,1.09,0,1,0,1,1.13v0A1.07,1.07,0,0,0,243.2,40.89Zm0,1.54a.51.51,0,0,1-.58-.42.5.5,0,0,1,.41-.58.5.5,0,0,1,.59.41s0,.06,0,.09A.47.47,0,0,1,243.21,42.43Z"></path><path id="Path_45" data-name="Path 45" class="cls-11" d="M245.58,40.59a1,1,0,1,0,1,1.13v-.08A1,1,0,0,0,245.58,40.59Zm0,1.48a.49.49,0,0,1-.57-.39.49.49,0,0,1,.39-.58.51.51,0,0,1,.58.39v.1a.44.44,0,0,1-.4.48Z"></path><path id="Path_46" data-name="Path 46" class="cls-11" d="M247.82,40.37a1,1,0,1,0,1,1.12v-.07A1,1,0,0,0,247.82,40.37Zm0,1.48a.49.49,0,0,1-.19-1,.5.5,0,0,1,.58.39.31.31,0,0,1,0,.1.45.45,0,0,1-.4.48Z"></path><path id="Path_47" data-name="Path 47" class="cls-11" d="M256,39.13a1.05,1.05,0,1,0,1,1.13.22.22,0,0,0,0-.08A1,1,0,0,0,256,39.13Zm0,1.49a.5.5,0,0,1-.58-.4.49.49,0,0,1,.39-.57.49.49,0,0,1,.58.39s0,.06,0,.09a.45.45,0,0,1-.4.48Z"></path><path id="Path_48" data-name="Path 48" class="cls-11" d="M258.31,38.91a1.05,1.05,0,1,0,1,1.13s0,0,0-.08A1,1,0,0,0,258.31,38.91Zm0,1.48a.49.49,0,1,1,.39-.57s0,.06,0,.09a.45.45,0,0,1-.4.48Z"></path><path id="Path_49" data-name="Path 49" class="cls-11" d="M260.68,38.58a1.05,1.05,0,1,0,1,1.13v-.08A1,1,0,0,0,260.68,38.58Zm0,1.48a.49.49,0,0,1-.58-.39.51.51,0,0,1,.39-.58.5.5,0,0,1,.58.4.28.28,0,0,1,0,.09.45.45,0,0,1-.4.48Z"></path><path id="Path_50" data-name="Path 50" class="cls-11" d="M244.69,38.87a1,1,0,0,1-1.35.48,1.07,1.07,0,0,1-.45-.42s-.11-.48.31-.55a10.84,10.84,0,0,0,0-1.14s.23-.54.54,0c0,0,0,.95,0,1.08S244.69,38.64,244.69,38.87Z"></path><path id="Path_51" data-name="Path 51" class="cls-11" d="M247.64,38.4a1,1,0,0,1-1.8.05s-.12-.48.31-.55c0,0,0-1.14,0-1.14s.22-.53.54,0c0,0,0,1,0,1.08S247.64,38.16,247.64,38.4Z"></path><path id="Path_52" data-name="Path 52" class="cls-11" d="M257.3,37.16a1,1,0,0,1-1.36.48,1,1,0,0,1-.44-.42s-.12-.48.31-.55c0,0,0-1.14,0-1.14s.22-.54.53,0c0,0,0,.95,0,1.08S257.3,36.93,257.3,37.16Z"></path><path id="Path_53" data-name="Path 53" class="cls-11" d="M260.29,36.76a1,1,0,0,1-1.8.06s-.11-.48.31-.56c0,0,0-1.14,0-1.14s.22-.53.54,0c0,0,0,1,0,1.09S260.29,36.52,260.29,36.76Z"></path><path id="Path_54" data-name="Path 54" class="cls-11" d="M224.89,63.55a1,1,0,0,1-1.36.47,1,1,0,0,1-.44-.42s-.12-.48.3-.55a10.84,10.84,0,0,0,0-1.14s.22-.53.53,0c0,0,0,1,0,1.08S224.89,63.31,224.89,63.55Z"></path><path id="Path_55" data-name="Path 55" class="cls-11" d="M216.94,64a1,1,0,0,1-1.36.47,1,1,0,0,1-.44-.42s-.12-.48.3-.55a10.84,10.84,0,0,0,0-1.14s.23-.53.54,0c0,0,0,1,0,1.08S216.94,63.76,216.94,64Z"></path><g id="Group_8" data-name="Group 8"><path id="Path_56" data-name="Path 56" class="cls-20" d="M256.52,102.47s2.44-.29,0-2.45c-.19-.39.54-7.26.54-7.26a.94.94,0,0,1,.83-1,.89.89,0,0,1,.46.06c-.23-.1,3.62.49,5.22,1.77a7.44,7.44,0,0,0,1.41.1s2.5-3.73,6.19-3.14c.21,0,2,8.73,2,8.73s-2.82,1.08,0,2.26"></path><path id="Path_57" data-name="Path 57" class="cls-21" d="M256.55,102.72l-.06-.49c.2,0,.75-.17.85-.49s0-.65-1-1.53l-.06-.08c-.19-.4.25-4.8.52-7.39h0a1.36,1.36,0,0,1,.4-1,1.33,1.33,0,0,1,1.16-.21,12.85,12.85,0,0,1,5.34,1.81,10.88,10.88,0,0,0,1.14.06c.46-.64,2.87-3.69,6.35-3.14.21,0,.38,0,2.2,8.93l.05.2-.2.08c-.36.13-1.09.54-1.1.91s.4.59,1.1.88l-.19.46c-.95-.4-1.42-.84-1.41-1.35s.83-1.1,1.22-1.28c-.62-3-1.61-7.63-1.87-8.36-3.45-.44-5.8,3-5.82,3l-.08.11H265c-1.25,0-1.56,0-1.64-.2a13.35,13.35,0,0,0-5-1.67v-.2l-.06.2a.88.88,0,0,0-.77.1.89.89,0,0,0-.23.63c-.26,2.51-.64,6.53-.56,7.14.89.8,1.24,1.45,1.07,2S256.59,102.71,256.55,102.72Z"></path></g><path id="Path_58" data-name="Path 58" class="cls-11" d="M263.1,100.71s-3.85-1.19-4.75-.39c-.05,0,.9.34,0,1.42,0,0,4,.1,4.75-.39A3.42,3.42,0,0,0,263.1,100.71Z"></path><path id="Path_59" data-name="Path 59" class="cls-11" d="M271.38,99.68s-.94.67,0,1.21a2.29,2.29,0,0,1-2.07,0s-.14-.49-.14-.49S269.69,99.24,271.38,99.68Z"></path><path id="Path_60" data-name="Path 60" class="cls-11" d="M265.26,93.89s2.87-3.37,5-2.57c.26.07,1.86,7.08,1.86,7.08s-4.18.27-5.13,1.95c0,0-2.49-.31-2.49-.31s-4.94-1.44-7-.7c-.09,0,.62-6.53.62-6.53a.6.6,0,0,1,.56-.34,18.39,18.39,0,0,1,4.75,1.72c-.05.1.52.2.52.2h.88Z"></path><path id="Path_61" data-name="Path 61" class="cls-22" d="M265.58,95.78s2.9-2.82,3.93-2.48c-.06,0,1,3.68,1,3.68s-3.7.64-4.61,1.67c0,0-4.89-2.26-7.56-1.37-.06,0,.28-2.85.28-2.85s1.3-.7,5.8,1.35C264.39,95.8,265.58,95.78,265.58,95.78Z"></path><g id="Group_9" data-name="Group 9"><path id="Path_62" data-name="Path 62" class="cls-23" d="M211.3,95.1l-.52,1.84c-.2.7,0,1,.42,1s.8-.3,1-1l.52-1.84h.38l-.51,1.82a1.55,1.55,0,0,1-1.5,1.33c-.6,0-1-.37-.69-1.33l.52-1.83Z"></path><path id="Path_63" data-name="Path 63" class="cls-23" d="M212.89,98.23l.88-3.11h.42l.5,1.57a9.41,9.41,0,0,1,.24,1h0c.08-.41.18-.79.32-1.28l.37-1.3H216l-.88,3.11h-.39l-.5-1.58a7.53,7.53,0,0,1-.26-1h0c-.09.39-.19.76-.34,1.28l-.37,1.33Z"></path><path id="Path_64" data-name="Path 64" class="cls-23" d="M217.05,95.14l-.88,3.11h-.39l.88-3.11Z"></path><path id="Path_65" data-name="Path 65" class="cls-23" d="M217.49,98.26l-.09-3.12h.41l0,1.54c0,.42,0,.8,0,1.16h0c.18-.36.41-.75.66-1.15l.94-1.54h.41l-1.94,3.1Z"></path><path id="Path_66" data-name="Path 66" class="cls-23" d="M221.23,96.82h-1.15l-.31,1.12h1.28l-.09.33h-1.67l.88-3.11h1.6l-.1.34h-1.21l-.28,1h1.15Z"></path><path id="Path_67" data-name="Path 67" class="cls-23" d="M222.32,95.22a3.17,3.17,0,0,1,.75-.06.93.93,0,0,1,.79.26.68.68,0,0,1,.07.59,1.2,1.2,0,0,1-.79.79h0c.2.08.28.31.26.63a4.12,4.12,0,0,0,0,.86H223a3.76,3.76,0,0,1,0-.75c0-.42-.08-.59-.42-.6h-.36l-.39,1.34h-.38Zm0,1.42h.39a.84.84,0,0,0,.84-.59c.11-.4-.11-.58-.52-.59a1.72,1.72,0,0,0-.39,0Z"></path><path id="Path_68" data-name="Path 68" class="cls-23" d="M223.91,97.81a1,1,0,0,0,.63.21.77.77,0,0,0,.77-.53c.08-.29,0-.46-.39-.62s-.66-.45-.53-.89a1.2,1.2,0,0,1,1.2-.83,1.11,1.11,0,0,1,.61.15l-.2.33a.9.9,0,0,0-.52-.15.67.67,0,0,0-.69.46c-.08.29.05.43.42.6s.62.47.5.92a1.27,1.27,0,0,1-1.29.89,1.09,1.09,0,0,1-.7-.21Z"></path><path id="Path_69" data-name="Path 69" class="cls-23" d="M227.25,95.21l-.88,3.11H226l.88-3.11Z"></path><path id="Path_70" data-name="Path 70" class="cls-23" d="M228.39,95.56h-.9l.1-.34h2.19l-.1.34h-.9L228,98.33h-.38Z"></path><path id="Path_71" data-name="Path 71" class="cls-23" d="M230,98.34l.38-1.32-.44-1.8h.44l.17.87c.05.23.09.42.12.64h0c.13-.2.3-.41.47-.64l.67-.86h.44L230.77,97l-.38,1.33Z"></path><path id="Path_72" data-name="Path 72" class="cls-24" d="M219.93,101.47a2,2,0,0,1-1.84,1.62c-.78,0-1.15-.64-.88-1.58A2.05,2.05,0,0,1,219,99.88C219.85,99.89,220.19,100.54,219.93,101.47Zm-2.31,0c-.19.67,0,1.26.59,1.27s1.11-.58,1.31-1.29,0-1.27-.58-1.27-1.13.61-1.32,1.29Z"></path><path id="Path_73" data-name="Path 73" class="cls-24" d="M220.86,99.94l1.6,0-.09.33h-1.22l-.29,1H222l-.09.33h-1.12l-.4,1.41H220Z"></path><path id="Path_74" data-name="Path 74" class="cls-25" d="M211.62,106.8l-.58,1h-.4l1.89-3.1H213l.13,3.12h-.41l0-1Zm1.06-.31,0-.9c0-.2,0-.39,0-.57h0a6.38,6.38,0,0,1-.31.56l-.54.9Z"></path><path id="Path_75" data-name="Path 75" class="cls-25" d="M214.44,104.68h.38l-.78,2.77h1.27l-.1.34h-1.66Z"></path><path id="Path_76" data-name="Path 76" class="cls-25" d="M217.58,106.36h-1.15l-.32,1.12h1.29l-.1.34h-1.67l.88-3.11h1.6L218,105H216.8l-.28,1h1.15Z"></path><path id="Path_77" data-name="Path 77" class="cls-25" d="M218.67,104.74a3.78,3.78,0,0,1,.75,0,.9.9,0,0,1,.76.26.69.69,0,0,1,.07.65,1.27,1.27,0,0,1-.41.67,1.58,1.58,0,0,1-1,.33.75.75,0,0,1-.3,0l-.36,1.25h-.38Zm0,1.5a1.15,1.15,0,0,0,.31,0,.89.89,0,0,0,.93-.66c.12-.41-.1-.61-.52-.62a2.22,2.22,0,0,0-.37,0Z"></path><path id="Path_78" data-name="Path 78" class="cls-25" d="M221,104.76a3.78,3.78,0,0,1,.75-.05.9.9,0,0,1,.76.26.72.72,0,0,1,.08.65,1.39,1.39,0,0,1-.42.67,1.58,1.58,0,0,1-1,.33,1.53,1.53,0,0,1-.3,0l-.36,1.25h-.38Zm0,1.5a1,1,0,0,0,.3,0,.91.91,0,0,0,.94-.66c.11-.41-.11-.61-.53-.62a2.31,2.31,0,0,0-.37,0Z"></path><path id="Path_79" data-name="Path 79" class="cls-25" d="M225.46,106.28a2,2,0,0,1-1.84,1.63c-.78,0-1.15-.65-.88-1.59a2,2,0,0,1,1.83-1.62C225.38,104.7,225.72,105.36,225.46,106.28Zm-2.31,0c-.19.66,0,1.26.59,1.26s1.11-.58,1.31-1.28,0-1.27-.59-1.27-1.12.61-1.31,1.29Z"></path></g><path id="Path_80" data-name="Path 80" class="cls-26" d="M269.34,104.26h1.07l-.54-.67a7,7,0,0,1-.62-7.34,1,1,0,0,0-.44-1.28.85.85,0,0,0-.31-.09.91.91,0,0,1-.5-1.19.36.36,0,0,1,0-.09c0,.05-.05-1-.82-1.12-.05.1-1-.56-.58-2,0-.1.63-.41-1.16-2.14-.05,0-.39-1.07.43-1,0,0,.7-.41-.54-1.12,0,0-.9,0-.76-1.48.05.1-.66-.31,0-1,0,.1,1.08-1.37-.75-3,.05,0-.22-1.64-.22-1.64l-.27-.24V80.7s0,1-.58,1.23c.1,0-1.11,1,0,1.78a3.44,3.44,0,0,1,.34.66l-.81.57-.2.76-1.5,0a4.91,4.91,0,0,1-4-4.94l-.48,0S255.53,85,257.61,87c.05.15.29.56.05.81-.05.2-1,.31-.1,1.28a3,3,0,0,1,1.15,1.22c.1.15-1,2.32.68,2.74,0,0,1.45.52.58,1.14s.72,1.42.72,1.42,1.84-.1,1.55,1.58c.05.16-1.11,1.48,1.69,2.4a7.76,7.76,0,0,1,1.39.52A9.26,9.26,0,0,1,269.34,104.26Z"></path><path id="Path_81" data-name="Path 81" class="cls-27" d="M268.28,101.2a13.24,13.24,0,0,1,0-4.44s.34-.66-.53-.2c-.05,0-1,.72-.58-.76-.05,0,.14-1.53.14-1.53s.2-1.41-.91-1.17c0,0,.19.66-1,.76a1,1,0,0,0,.34,1.33C265.82,95.28,268.28,101.2,268.28,101.2Z"></path><path id="Path_82" data-name="Path 82" class="cls-27" d="M266.56,99.93a12.93,12.93,0,0,0-3.39-2.63s-.68-.13.13-.53c0,0,1.09-.36-.27-.9.06,0-1.24-.8-1.24-.8s-1.18-.68-.4-1.4c0,0,.4.54,1.1-.3,0,0,.73.06.82,1Z"></path><path id="Path_83" data-name="Path 83" class="cls-27" d="M265.77,92.48a2.38,2.38,0,0,1,0-1.58s.68-.87-1.25-1.84c0-.15-1.15-2.63,0-2.19,0-.05.74-.46-.52-1.12-.07,0-.48-.61,0-2.14.08,0-.15-4.8-.76-.26.12.05.46.41,0,1.68a2.9,2.9,0,0,0-.32,2.3c.1.1.34,1.89.92,3.67.05,0,1.11,2.38,1.11,2.38a.73.73,0,0,0,.83-.63A.62.62,0,0,0,265.77,92.48Z"></path><path id="Path_84" data-name="Path 84" class="cls-27" d="M262.44,92.38s-2.27-2.5-1.69-5.4A6.24,6.24,0,0,1,257,83.76a7.4,7.4,0,0,0,1.54,3.64,1.09,1.09,0,0,0-.27,1.51,1,1,0,0,0,.8.46c-.1,0,1.11,1.07.63,2.14a3.79,3.79,0,0,1,1.39,1.28A1,1,0,0,0,262.44,92.38Z"></path><path id="Path_85" data-name="Path 85" class="cls-27" d="M261.57,86.56s2.17,9,5.5,13.37c.1,0-4.73-8.37-5.16-13.37C261.91,86.51,261.57,86.56,261.57,86.56Z"></path><path id="Path_86" data-name="Path 86" class="cls-28" d="M265.49,100.16c.33,0,0,.22,0,.22a2.33,2.33,0,0,0,.1,1.14,4,4,0,0,1,1.24.51,4.17,4.17,0,0,1,1.25,1.19,7.32,7.32,0,0,0,0,1.87.83.83,0,0,1-.05.58c-.11.2-.42.35-1.18.26a20.4,20.4,0,0,0-5.06,0,.48.48,0,0,1-.29-.06.82.82,0,0,1-.13-.94l-.05-1.61a3.4,3.4,0,0,1,1.25-1.19c.65-.35,1.1-.27,1.3-.68s0-1.29-.26-1.29Z"></path><path id="Path_87" data-name="Path 87" class="cls-9" d="M264.32,102.42a3,3,0,0,0-1,.27,3.27,3.27,0,0,0-1.34,1.24v.92a10.45,10.45,0,0,1,4.88.05s0-1.5,0-1.5a4.89,4.89,0,0,0-.93-.56A4.8,4.8,0,0,0,264.32,102.42Z"></path><path id="Path_88" data-name="Path 88" class="cls-29" d="M264.18,102.8a2.64,2.64,0,0,0-1.66,1s0,.75,0,.75h.08A2.14,2.14,0,0,1,264.18,102.8Z"></path><g id="Group_10" data-name="Group 10"><path id="Path_89" data-name="Path 89" d="M209.19,29.06a1.43,1.43,0,0,1,1.19-.57H211s.05,0,.05-.07v-.17h.79v2.34a.31.31,0,0,0,.28.3h.33v.75h-.33a1.39,1.39,0,0,1-.6-.14,1.12,1.12,0,0,1-.36-.29,1.49,1.49,0,0,1-.82.25,1.74,1.74,0,0,1-.39-.05,1.5,1.5,0,0,1-.68-.39,1.42,1.42,0,0,1-.38-.66,1.37,1.37,0,0,1-.05-.4A1.44,1.44,0,0,1,209.19,29.06Zm.09-1.72a.43.43,0,0,1,.34-.13.41.41,0,0,1,.33.13.44.44,0,0,1,.11.29.41.41,0,0,1-.11.28.42.42,0,0,1-.33.13.4.4,0,0,1-.33-.13.44.44,0,0,1,0-.57Zm.41,2.83a.66.66,0,0,0,.5.5.69.69,0,0,0,.2,0,.76.76,0,0,0,.43-.16.69.69,0,0,0,.28-.57v-.71h-.71a.73.73,0,0,0-.72.72,1.49,1.49,0,0,0,0,.21Zm.59-2.53a.42.42,0,0,1,.42-.42h0a.41.41,0,0,1,.33.13.45.45,0,0,1,.1.29.4.4,0,0,1-.1.28.42.42,0,0,1-.33.13.4.4,0,0,1-.33-.13A.38.38,0,0,1,210.28,27.64Z"></path><path id="Path_90" data-name="Path 90" d="M217.58,31.64h-.81a2.41,2.41,0,0,1-1.53-.49,4.79,4.79,0,0,1-2.24.49h-.73v-.75H213a3.92,3.92,0,0,0,1.69-.33l-.13-.2a1.82,1.82,0,0,0-.48-.55,1.13,1.13,0,0,0-.57-.12,3.25,3.25,0,0,0-.44,0l-.24-.65a4.67,4.67,0,0,1,1.76-.71,3.18,3.18,0,0,1,.62-.06,2.3,2.3,0,0,1,.86.16.9.9,0,0,1,.58.86h0a1.73,1.73,0,0,1-.58,1.22l-.14.14a1.61,1.61,0,0,0,.93.2h.71Zm-2.5-2.6a2.12,2.12,0,0,0-.57.07l.31.3a3,3,0,0,1,.23.27l.18.27.14.21a1.37,1.37,0,0,0,.13-.13,1,1,0,0,0,.33-.68v-.07s0,0,0-.05a.24.24,0,0,0-.1-.1,1.13,1.13,0,0,0-.51-.1Z"></path><path id="Path_91" data-name="Path 91" d="M216.88,31.64v-.75h.72a.53.53,0,0,0,.12,0c.05,0,.07,0,.07-.07v-.7a1.64,1.64,0,1,1,1.66,1.62h0a1.33,1.33,0,0,1-1-.35,1,1,0,0,1-.32.18,1.3,1.3,0,0,1-.56.1Zm1.75-1.55a.93.93,0,0,0,.23.63.78.78,0,0,0,1.1,0l0,0a.92.92,0,0,0,0-1.24.78.78,0,0,0-1.1,0l0,0a.84.84,0,0,0-.23.62Z"></path><path id="Path_92" data-name="Path 92" d="M221.94,26.9h.83v3.86c0,.09,0,.13.12.13h.79v.75h-.82a1,1,0,0,1-.67-.24.82.82,0,0,1-.26-.64Z"></path><path id="Path_93" data-name="Path 93" d="M226.15,30.89a2,2,0,0,1-.15-1,.82.82,0,0,0-.22-.56.66.66,0,0,0-.5-.23.81.81,0,0,0-.72.54l-.7-.37a1.7,1.7,0,0,1,.63-.7,1.54,1.54,0,0,1,.79-.22,1.49,1.49,0,0,1,1.09.48,1.56,1.56,0,0,1,.45,1.1,1.18,1.18,0,0,0,.2.75.63.63,0,0,0,.5.18v.74h-3.88V30.9Zm-.65,1.16a.44.44,0,0,1,.35-.15.45.45,0,0,1,.47.43v0a.48.48,0,0,1-.82.3.46.46,0,0,1,0-.6Z"></path><path id="Path_94" data-name="Path 94" d="M210.06,36l.42.69a.8.8,0,0,0-.45.68.7.7,0,0,0,.21.52.79.79,0,0,0,.58.21h2V35.75h.83v2.31h.9v.75h-3.83a1.55,1.55,0,0,1-1.12-.44,1.4,1.4,0,0,1-.43-1A1.56,1.56,0,0,1,210.06,36Zm1.29,3.53a.44.44,0,0,1,.42-.45h0a.45.45,0,0,1,.35.15.42.42,0,0,1,.12.3.41.41,0,0,1-.12.3.46.46,0,0,1-.35.14.5.5,0,0,1-.35-.14.46.46,0,0,1-.11-.3Z"></path><path id="Path_95" data-name="Path 95" d="M214.28,38.81v-.75h2.46v.75Z"></path><path id="Path_96" data-name="Path 96" d="M216.44,38.81v-.75h2.46v.75Z"></path><path id="Path_97" data-name="Path 97" d="M218.61,38.81v-.75h2.45v.75Z"></path><path id="Path_98" data-name="Path 98" d="M220.85,38.06h.9v-4h.84V37a1.35,1.35,0,0,0,.15.74.59.59,0,0,0,.57.32h.31v.75h-.35a.91.91,0,0,1-.69-.19v.19h-1.73Z"></path><path id="Path_99" data-name="Path 99" d="M225.69,38.06a2.08,2.08,0,0,1-.14-1,.82.82,0,0,0-.22-.56.66.66,0,0,0-.5-.23.81.81,0,0,0-.72.54l-.7-.37a1.75,1.75,0,0,1,.62-.7,1.6,1.6,0,0,1,.8-.22,1.51,1.51,0,0,1,1.09.48,1.56,1.56,0,0,1,.45,1.1,1.18,1.18,0,0,0,.2.75.63.63,0,0,0,.5.18v.74h-3.88v-.74Z"></path></g><g id="Group_11" data-name="Group 11"><path id="Path_100" data-name="Path 100" d="M211.92,49.92h-1.16V45.46l-1.38.43v-1l2.41-.86h.13Z"></path><path id="Path_101" data-name="Path 101" d="M213.76,46.07a2.35,2.35,0,0,1,.25-1,1.87,1.87,0,0,1,.7-.75,1.91,1.91,0,0,1,1-.26,1.79,1.79,0,0,1,1,.29,1.89,1.89,0,0,1,.7.83,2.91,2.91,0,0,1,.25,1.23v.43a3.4,3.4,0,0,1-.72,2.3,2.81,2.81,0,0,1-2.06.89h-.28V49h.25a1.47,1.47,0,0,0,1.63-1.32.34.34,0,0,0,0-.1,1.47,1.47,0,0,1-1.06.45,1.59,1.59,0,0,1-1.24-.54A2.11,2.11,0,0,1,213.76,46.07Zm1.16,0a1.27,1.27,0,0,0,.22.78.7.7,0,0,0,.61.31.9.9,0,0,0,.48-.14,1,1,0,0,0,.31-.35v-.48a1.6,1.6,0,0,0-.22-.91.7.7,0,0,0-.6-.33.68.68,0,0,0-.58.32,1.4,1.4,0,0,0-.22.8Z"></path><path id="Path_102" data-name="Path 102" d="M218.55,48.3h1.15a.88.88,0,0,0,.25.57.8.8,0,0,0,.57.2.7.7,0,0,0,.6-.29,1.31,1.31,0,0,0,.22-.8,1.12,1.12,0,0,0-.25-.76.88.88,0,0,0-.69-.26,1,1,0,0,0-.67.21l-.11.1-.93-.22.34-3h3.27v1H220l-.14,1.25a1.8,1.8,0,0,1,.88-.22,1.64,1.64,0,0,1,1.3.52A2,2,0,0,1,222.5,48a2.25,2.25,0,0,1-.24,1,1.76,1.76,0,0,1-.69.69,2.23,2.23,0,0,1-1,.25,2.38,2.38,0,0,1-1-.22,1.66,1.66,0,0,1-.71-.6A1.64,1.64,0,0,1,218.55,48.3Z"></path><path id="Path_103" data-name="Path 103" d="M223.47,47.48a1.58,1.58,0,0,1,.67-.56,1.48,1.48,0,0,1-.58-.53,1.34,1.34,0,0,1-.22-.75,1.56,1.56,0,0,1,.5-1.19,2.28,2.28,0,0,1,2.7,0,1.5,1.5,0,0,1,.5,1.19,1.36,1.36,0,0,1-.21.76,1.53,1.53,0,0,1-.58.52,1.74,1.74,0,0,1,.67.56,1.51,1.51,0,0,1,.25.85,1.56,1.56,0,0,1-.53,1.23,2.53,2.53,0,0,1-2.88,0,1.54,1.54,0,0,1-.54-1.23A1.44,1.44,0,0,1,223.47,47.48Zm1.12,1.36a.91.91,0,0,0,1.2,0,1,1,0,0,0,0-1.22.89.89,0,0,0-1.18,0,1,1,0,0,0,0,1.21Zm.1-2.58a.71.71,0,0,0,1,0h0a.83.83,0,0,0,.18-.57.77.77,0,0,0-.18-.54.73.73,0,0,0-1,0,.85.85,0,0,0-.18.55.89.89,0,0,0,.19.57Z"></path></g><path id="Path_104" data-name="Path 104" class="cls-30" d="M238.09,89.11c-.48-7.13-.86-12.33-.92-13.48a1.86,1.86,0,0,0-.52-1.24c-.27-.28-.85-.69-1.24-.54s-.4.73-.41,1.07c0,2.08.67,13.41.76,14.79Z"></path><path id="Path_105" data-name="Path 105" class="cls-30" d="M233.28,90.3c-.49-7.13-.87-12.33-.93-13.48a4.24,4.24,0,0,0-.52-1.24c-.18-.34-.53-1-.76-.93s-.24,1.15-.24,1.43c0,1.83.08,7.2.1,14.82Z"></path><path id="Path_106" data-name="Path 106" class="cls-30" d="M244.16,86.31c-.44-6.4-.77-11.06-.81-11.6a1.71,1.71,0,0,0-.22-.76,1.87,1.87,0,0,0-.29-.34c-.28-.24-.86-.6-1.24-.47s-.39.71-.41.94c-.16,1.85.7,11.72.83,13.31Z"></path><path id="Path_107" data-name="Path 107" class="cls-30" d="M248.86,82.63c-.4-5.6-.7-9.67-.75-10.14a1.34,1.34,0,0,0-.51-1,1.67,1.67,0,0,0-1.24-.43c-.35.11-.39.68-.41.86-.2,1.71.59,10.94.71,12.38Z"></path><path id="Path_108" data-name="Path 108" class="cls-30" d="M253,78l-1.37,1.79-.62-.19c-.23-2.61-.79-9.21-.57-10.53,0-.16.08-.66.41-.75a1.83,1.83,0,0,1,1.24.37,1.28,1.28,0,0,1,.29.28,1.16,1.16,0,0,1,.23.6C252.63,70,252.79,73.36,253,78Z"></path><path id="Path_110" data-name="Path 110" class="cls-30" d="M251.6,79.59v.19l-.62-.19Z"></path></g></g></g><g id="Layer_17" data-name="Layer 17"><g id="Group_28" data-name="Group 28"><rect id="Rectangle_38" data-name="Rectangle 38" class="cls-1" x="1.07" y="81.28" width="156.58" height="22.63" rx="5.6"></rect><g id="Group_26" data-name="Group 26"><path id="Path_122" data-name="Path 122" class="cls-1" d="M12.94,48.19a1.84,1.84,0,0,0,1.42-.55,1.64,1.64,0,0,0,.49-1.23,1.78,1.78,0,0,0-.48-1.26,1.8,1.8,0,0,0-1.43-.59A1.78,1.78,0,0,0,11,46.22a1.2,1.2,0,0,0,0,.19,1.71,1.71,0,0,0,.45,1.22A1.91,1.91,0,0,0,12.94,48.19Z"></path><path id="Path_123" data-name="Path 123" class="cls-1" d="M55.77,39.83A4.87,4.87,0,0,1,55,36.71a6.28,6.28,0,0,0-1.84-4.48,6.06,6.06,0,0,0-4.5-2,6.2,6.2,0,0,0-3.25.88A7.15,7.15,0,0,0,42.8,34l2.86,1.51c.76-1.48,1.75-2.22,3-2.22a2.7,2.7,0,0,1,2.07,1,3.35,3.35,0,0,1,.9,2.31,8.4,8.4,0,0,0,.61,4H42.42a2.52,2.52,0,0,1-2.36-1.32,6.31,6.31,0,0,1-.62-3V24.09H36V40.54H20.59V31.05H17.18v9.49H8.85a3.28,3.28,0,0,1-2.36-.88,2.85,2.85,0,0,1-.87-2.12,3.22,3.22,0,0,1,1.86-2.79L5.75,31.91Q2.19,34,2.19,37.54a5.81,5.81,0,0,0,1.75,4.27,6.43,6.43,0,0,0,4.61,1.8H39.44v-.79a3.31,3.31,0,0,0,2.45.78H57.82V40.54A2.54,2.54,0,0,1,55.77,39.83Z"></path><path id="Path_124" data-name="Path 124" class="cls-1" d="M75.55,28.87a1.79,1.79,0,0,0,1.35-.53,1.66,1.66,0,0,0,.43-1.16A1.76,1.76,0,0,0,76.91,26a1.72,1.72,0,0,0-1.36-.56,1.7,1.7,0,0,0-1.38.56,1.61,1.61,0,0,0-.44,1.18,1.59,1.59,0,0,0,.45,1.15A1.68,1.68,0,0,0,75.55,28.87Z"></path><path id="Path_125" data-name="Path 125" class="cls-1" d="M71,28.82a1.7,1.7,0,0,0,1.36-.53,1.57,1.57,0,0,0,.45-1.16A1.62,1.62,0,0,0,72.35,26a1.84,1.84,0,0,0-3.15,1,1.28,1.28,0,0,0,0,.19,1.71,1.71,0,0,0,.44,1.15A1.74,1.74,0,0,0,71,28.82Z"></path><path id="Path_126" data-name="Path 126" class="cls-1" d="M122.15,30.58a6.67,6.67,0,0,0-6.71,6.63v2.88c0,.14-.1.25-.31.32a2,2,0,0,1-.48.09l-.36,0H100.76A6.93,6.93,0,0,1,97,39.71l.57-.58a7.23,7.23,0,0,0,2.4-5v0a3.68,3.68,0,0,0-2.4-3.52A8.94,8.94,0,0,0,94,29.89a15.6,15.6,0,0,0-2.55.23A19.14,19.14,0,0,0,84.21,33l1,2.66a15.56,15.56,0,0,1,1.8-.13,4.48,4.48,0,0,1,2.33.49,7.87,7.87,0,0,1,2,2.27l.54.82a16.19,16.19,0,0,1-7,1.38H81.42a1.29,1.29,0,0,1-.8-.41,1.13,1.13,0,0,1-.34-.83V29.67H77.05v.7c0,.19-.06.28-.19.28H74.14a6.15,6.15,0,0,0-6.2,6,7.13,7.13,0,0,0,.22,1.66A5.62,5.62,0,0,0,69.74,41a5.83,5.83,0,0,0,2.77,1.62,6.61,6.61,0,0,0,1.6.19,5.93,5.93,0,0,0,3.37-1A4.45,4.45,0,0,0,79,43a5.1,5.1,0,0,0,2.45.59h3.47a19.51,19.51,0,0,0,9.19-2,9.79,9.79,0,0,0,6.28,2h13.93a5.28,5.28,0,0,0,2.29-.43,3.51,3.51,0,0,0,1.29-.73,5.65,5.65,0,0,0,4.28,1.46,6.67,6.67,0,0,0,0-13.33ZM77,33.83v2.93a2.82,2.82,0,0,1-1.13,2.34,2.88,2.88,0,0,1-1.78.63,3,3,0,0,1-.79-.1,2.67,2.67,0,0,1-2-2.07,3.13,3.13,0,0,1-.12-.86,3,3,0,0,1,2.94-2.93h2.72c.19,0,.28,0,.28,0l-.09,0Zm19.47.33v.05A4,4,0,0,1,95.17,37c-.32.32-.51.5-.56.54s-.19-.3-.57-.87l-.75-1.1a11.15,11.15,0,0,0-.94-1.12c-.8-.81-1.23-1.22-1.28-1.24a10.84,10.84,0,0,1,2.34-.27h.49a4.37,4.37,0,0,1,2.1.41.92.92,0,0,1,.43.4.73.73,0,0,1,.06.21l0,.12Zm28,5.61A3.2,3.2,0,0,1,120,40l-.18-.17a3.72,3.72,0,0,1-1-2.56,3.77,3.77,0,0,1,1-2.58,3.18,3.18,0,0,1,4.49-.18l.18.19a3.62,3.62,0,0,1,1,2.57,3.56,3.56,0,0,1-1,2.52Z"></path><path id="Path_127" data-name="Path 127" class="cls-1" d="M136.3,43.6h19.07V40.54a2.54,2.54,0,0,1-2.05-.71,4.87,4.87,0,0,1-.81-3.12,6.28,6.28,0,0,0-1.85-4.48,6,6,0,0,0-4.49-2,6.21,6.21,0,0,0-3.26.88A7.12,7.12,0,0,0,140.36,34l2.85,1.51c.77-1.48,1.75-2.22,3-2.22a2.68,2.68,0,0,1,2.06,1,3.29,3.29,0,0,1,.9,2.31,8.47,8.47,0,0,0,.61,4H136.37c-.32,0-.48-.18-.48-.53V24.12h-3.44V40a3.41,3.41,0,0,0,1.08,2.6A3.86,3.86,0,0,0,136.3,43.6Z"></path><path id="Path_128" data-name="Path 128" class="cls-1" d="M148.52,44.68a1.78,1.78,0,0,0-1.89,1.66,1.21,1.21,0,0,0,0,.19,1.72,1.72,0,0,0,.46,1.22,1.89,1.89,0,0,0,1.44.56,1.81,1.81,0,0,0,1.44-.56,1.69,1.69,0,0,0,.49-1.22,1.84,1.84,0,0,0-1.84-1.85Z"></path><path id="Path_129" data-name="Path 129" class="cls-1" d="M9.23,58.11a1.21,1.21,0,0,0,0-1.55,1.11,1.11,0,0,0-.9-.38,1.14,1.14,0,0,0-.92.38,1.11,1.11,0,0,0-.29.78,1,1,0,0,0,.3.76,1.14,1.14,0,0,0,.91.36A1.22,1.22,0,0,0,9.23,58.11Z"></path><path id="Path_130" data-name="Path 130" class="cls-1" d="M10,60.57a4.44,4.44,0,1,0-3.16,7.55A4.31,4.31,0,0,0,10,66.82a4.41,4.41,0,0,0,0-6.23l0,0ZM8.37,65.4a2.07,2.07,0,0,1-1.56.68,2,2,0,0,1-1.54-.68,2.59,2.59,0,0,1,0-3.4,2,2,0,0,1,1.54-.69A2,2,0,0,1,8.37,62,2.56,2.56,0,0,1,8.37,65.4Z"></path><path id="Path_131" data-name="Path 131" class="cls-1" d="M6.2,58.07a1,1,0,0,0,.3-.77,1.08,1.08,0,0,0-.3-.78,1.11,1.11,0,0,0-.9-.37,1.12,1.12,0,0,0-1.19,1v.12A1.1,1.1,0,0,0,5.3,58.42,1.09,1.09,0,0,0,6.2,58.07Z"></path><path id="Path_132" data-name="Path 132" class="cls-1" d="M15.57,59.76H13.31v6.5a5.07,5.07,0,0,1-2.83,4.44l1.1,1.78c2.66-1.61,4-3.69,4-6.22Z"></path><path id="Path_133" data-name="Path 133" class="cls-1" d="M47,66.08H44.68q-.87,0-1-.24l-.22-.36a4.06,4.06,0,0,0,.29-1.58,4.45,4.45,0,0,0-8.9,0v1.9c0,.09-.07.16-.21.22a1.36,1.36,0,0,1-.29.06h-2a1.19,1.19,0,0,1-1-.47,3.21,3.21,0,0,1-.54-2.06,4.16,4.16,0,0,0-1.22-3,4,4,0,0,0-3-1.31,4.11,4.11,0,0,0-2.16.59,4.65,4.65,0,0,0-1.69,1.91l1.89,1a2.24,2.24,0,0,1,2-1.47,1.79,1.79,0,0,1,1.36.63,2.17,2.17,0,0,1,.6,1.53A5.76,5.76,0,0,0,29,66.08H22.25a1.67,1.67,0,0,1-1.58-.89,4.18,4.18,0,0,1-.4-2v-3.4H18v6.5a5.08,5.08,0,0,1-2.81,4.45l1.08,1.78q3.89-2.37,4-4.71c.13.2.78.31,2,.33H34.07a3.32,3.32,0,0,0,1.52-.28,2.46,2.46,0,0,0,.86-.49,4.6,4.6,0,0,0,5.7,0,2.29,2.29,0,0,0,2.05.81h5V55.19H47Zm-6.12-.51a2.12,2.12,0,0,1-3,.14l-.11-.11a2.43,2.43,0,0,1-.63-1.7,2.49,2.49,0,0,1,.63-1.72,2.11,2.11,0,0,1,3-.11l.12.12a2.46,2.46,0,0,1,.66,1.71,2.36,2.36,0,0,1-.65,1.67Z"></path><rect id="Rectangle_39" data-name="Rectangle 39" class="cls-1" x="51.62" y="55.19" width="2.28" height="12.93"></rect><path id="Path_134" data-name="Path 134" class="cls-1" d="M67.57,58.17a1.22,1.22,0,0,0,1-2,1.4,1.4,0,0,0-1.91,0,1.2,1.2,0,0,0,.06,1.71,1.18,1.18,0,0,0,.89.33Z"></path><path id="Path_135" data-name="Path 135" class="cls-1" d="M71.46,57.8a1.21,1.21,0,0,0-.95-2,1.27,1.27,0,0,0-1,.37,1.19,1.19,0,0,0,1,2A1.28,1.28,0,0,0,71.46,57.8Z"></path><path id="Path_136" data-name="Path 136" class="cls-1" d="M87.45,60.2a4.76,4.76,0,0,0-2.19-.51,5.86,5.86,0,0,0-1.44.18,12.33,12.33,0,0,0-4,1.9V55.19H77.53V66.08H76v0H73.51V64.59c0-.39,0-.69,0-.9a4.46,4.46,0,1,0-7.61,3.11A4.31,4.31,0,0,0,69,68.12h2.06a4.71,4.71,0,0,1-.93,1.32,4.48,4.48,0,0,1-6.33,0l0,0a4.39,4.39,0,0,1-1.33-3.22,4.86,4.86,0,0,1,.8-2.61L61.78,62a7.14,7.14,0,0,0-1.51,4.25A6.72,6.72,0,0,0,71.74,71a6.56,6.56,0,0,0,1.65-2.64.67.67,0,0,0,0-.19H89.07v-5A2.93,2.93,0,0,0,87.45,60.2ZM71.24,66.08H69a2,2,0,0,1-1.57-.69,2.47,2.47,0,0,1-.61-1.7A2.37,2.37,0,0,1,67.49,62a2.1,2.1,0,0,1,3.11,0,2.34,2.34,0,0,1,.64,1.69Zm15.56,0h-7V63.94a13.58,13.58,0,0,1,4.9-2.13q.3,0,.6-.06a3.19,3.19,0,0,1,.53.06,1.11,1.11,0,0,1,.3.08l.11,0,.09,0a1.16,1.16,0,0,1,.47,1.1Z"></path><path id="Path_137" data-name="Path 137" class="cls-1" d="M100.08,58.42a1.28,1.28,0,0,0,0-1.65,1.21,1.21,0,0,0-1-.37,1.18,1.18,0,0,0-1,.37,1.22,1.22,0,0,0,0,1.65,1.16,1.16,0,0,0,1,.38A1.22,1.22,0,0,0,100.08,58.42Z"></path><path id="Path_138" data-name="Path 138" class="cls-1" d="M116.91,66.08h-2.27q-.87,0-1-.24l-.23-.36a4.06,4.06,0,0,0,.29-1.58,4.45,4.45,0,0,0-8.9,0v1.9c0,.09-.06.16-.2.22a1.59,1.59,0,0,1-.3.06h-1.79a1.66,1.66,0,0,1-1.56-.87,4.06,4.06,0,0,1-.41-2v-3.4H98.25v6.3H94.06c-.21,0-.32-.12-.32-.36V55.19H91.46V65.72a2.27,2.27,0,0,0,.72,1.73,2.61,2.61,0,0,0,1.83.67h6.5v-.53a2.37,2.37,0,0,0,1.79.52H104a3.32,3.32,0,0,0,1.52-.28,2.42,2.42,0,0,0,.85-.49,4.61,4.61,0,0,0,5.71,0,2.29,2.29,0,0,0,2.05.81h5V55.19h-2.28Zm-6.11-.51a2.13,2.13,0,0,1-3,.14l-.11-.11a2.47,2.47,0,0,1-.63-1.7,2.54,2.54,0,0,1,.63-1.72,2.11,2.11,0,0,1,3-.11l.12.12a2.38,2.38,0,0,1,.66,1.71,2.31,2.31,0,0,1-.64,1.67Z"></path><rect id="Rectangle_40" data-name="Rectangle 40" class="cls-1" x="121.58" y="55.19" width="2.28" height="12.93"></rect><path id="Path_139" data-name="Path 139" class="cls-1" d="M138.32,72.53a1.14,1.14,0,0,0-1.26,1.2,1.27,1.27,0,0,0,.3.83,1.29,1.29,0,0,0,1,.36,1.27,1.27,0,0,0,1-.36,1.24,1.24,0,0,0,0-1.67A1.26,1.26,0,0,0,138.32,72.53Z"></path><path id="Path_140" data-name="Path 140" class="cls-1" d="M135.3,72.53a1.19,1.19,0,0,0-.94.37,1.26,1.26,0,0,0,1.9,1.66,1.23,1.23,0,0,0,0-1.66A1.18,1.18,0,0,0,135.3,72.53Z"></path><path id="Path_141" data-name="Path 141" class="cls-1" d="M151.51,58.28a1.28,1.28,0,0,0,1-.37,1.26,1.26,0,0,0,.29-.83,1.33,1.33,0,0,0-.29-.83,1.42,1.42,0,0,0-1.92,0,1.28,1.28,0,0,0-.31.84,1.17,1.17,0,0,0,1.27,1.2Z"></path><path id="Path_142" data-name="Path 142" class="cls-1" d="M156,63.7a4.45,4.45,0,0,0-8.9,0,3.47,3.47,0,0,0,.63,2.38h-3.18a4.84,4.84,0,0,1-2.06-.62c-.31-.17-.67-.38-1.07-.64l-2-1.38-1.18,1.73.81.58c.55.38,1,.68,1.34.9a1.23,1.23,0,0,1,.53.66,1.34,1.34,0,0,1,.1.52,1.59,1.59,0,0,1-.06.43,1.88,1.88,0,0,1-1,1.18,4.7,4.7,0,0,1-2.21.46,7.06,7.06,0,0,1-3.23-.71,3.47,3.47,0,0,1-1.79-1.75,1.69,1.69,0,0,1-.13-.63,3.07,3.07,0,0,1,1.2-2.11l-1.46-1.54a6,6,0,0,0-1.76,2.56,4.32,4.32,0,0,0-.13,1,4,4,0,0,0,.28,1.45,5.23,5.23,0,0,0,2.63,2.73,9.15,9.15,0,0,0,4.39,1,6.71,6.71,0,0,0,3.45-.82,3.89,3.89,0,0,0,2-3.1v0a4.25,4.25,0,0,0,1.33.15H156Zm-2.27,2.38h-2.2a2,2,0,0,1-1.56-.68,2.39,2.39,0,0,1-.65-1.7,2.47,2.47,0,0,1,.65-1.71,2.11,2.11,0,0,1,1.58-.68,2,2,0,0,1,1.55.68,2.45,2.45,0,0,1,.63,1.71Z"></path></g><g id="Group_27" data-name="Group 27"><path id="Path_143" data-name="Path 143" class="cls-7" d="M40,89.15a2.09,2.09,0,0,1,.89-.85,2.8,2.8,0,0,1,1.34-.3,2.53,2.53,0,0,1,1.73.55,1.89,1.89,0,0,1,.63,1.52,2.61,2.61,0,0,1-.32,1.18,6.45,6.45,0,0,1-1,1.4l-1.84,2h3.49v1H39.79v-.86L42.29,92a6.27,6.27,0,0,0,.77-1,1.58,1.58,0,0,0,.23-.81,1.2,1.2,0,0,0-.3-.87,1,1,0,0,0-.81-.33,1.21,1.21,0,0,0-1,.37,1.49,1.49,0,0,0-.33,1H39.64A2.54,2.54,0,0,1,40,89.15Z"></path><path id="Path_144" data-name="Path 144" class="cls-7" d="M45.78,92.54v-1.3a4.1,4.1,0,0,1,.6-2.44A2.54,2.54,0,0,1,50,88.67l.12.11a4,4,0,0,1,.62,2.37v1.3a4.11,4.11,0,0,1-.61,2.44,2.14,2.14,0,0,1-1.84.83,2.19,2.19,0,0,1-1.84-.8A3.94,3.94,0,0,1,45.78,92.54Zm1.54,1.66a1,1,0,0,0,.93.51,1,1,0,0,0,.89-.47,3.11,3.11,0,0,0,.3-1.5V91.05a3.3,3.3,0,0,0-.29-1.55,1.1,1.1,0,0,0-1.52-.32,1.18,1.18,0,0,0-.3.29,2.85,2.85,0,0,0-.3,1.46v1.7a3.15,3.15,0,0,0,.29,1.57Z"></path><path id="Path_145" data-name="Path 145" class="cls-7" d="M55.21,95.61H54v-6l-1.85.63V89.15L55,88.07h.16Z"></path><path id="Path_146" data-name="Path 146" class="cls-7" d="M57.92,93.58h1.21a1.33,1.33,0,0,0,.4.84,1.16,1.16,0,0,0,.83.29,1,1,0,0,0,.9-.41,1.8,1.8,0,0,0,.33-1.12,1.58,1.58,0,0,0-.36-1.09,1.25,1.25,0,0,0-1-.4,1.37,1.37,0,0,0-1.1.44l-1-.25.41-3.79h4v1.09h-3L59.4,91a2.29,2.29,0,0,1,1.17-.3,2.06,2.06,0,0,1,1.67.69,2.67,2.67,0,0,1,.6,1.84A2.47,2.47,0,0,1,62.18,95a2.43,2.43,0,0,1-1.81.68,2.55,2.55,0,0,1-1.71-.59A2.14,2.14,0,0,1,57.92,93.58Z"></path><path id="Path_147" data-name="Path 147" class="cls-7" d="M66.72,96.3a1.7,1.7,0,0,1,.51-1.38,1.09,1.09,0,0,1,.45-.24,1.31,1.31,0,0,1,.39-.05h.17l.21-.05c.14,0,.2-.12.21-.24V93.1a2.64,2.64,0,0,1,.81-1.95,2.69,2.69,0,0,1,2-.81,2.77,2.77,0,0,1,2.79,2.76,2.35,2.35,0,0,1-.15.91,3.35,3.35,0,0,1-.76,1.14,2.42,2.42,0,0,1-1.87.72,2.45,2.45,0,0,1-1.87-.71c-.23.4-.74.6-1.52.6a.22.22,0,0,0-.13.08,1.75,1.75,0,0,0,0,.46v3.09H66.72Zm3.65-2a1.47,1.47,0,0,0,2.07.09l.1-.09a1.76,1.76,0,0,0,0-2.35,1.48,1.48,0,0,0-2.09-.09l-.08.09A1.78,1.78,0,0,0,70.37,94.28Z"></path><path id="Path_148" data-name="Path 148" class="cls-7" d="M76,87.55h1.28v6.74c0,.23.1.34.31.34h1.3v1.11H77.59a1.55,1.55,0,0,1-1.12-.4,1.34,1.34,0,0,1-.43-1Z"></path><path id="Path_149" data-name="Path 149" class="cls-7" d="M78.27,94.63h2s0,0,0,0h0a.8.8,0,0,0-.11-.25A2.68,2.68,0,0,1,79.86,93a3.24,3.24,0,0,1,.11-.76,2.9,2.9,0,0,1,2.69-2,3,3,0,0,1,.78.11,2.78,2.78,0,0,1,1.73,1.4l-1,.58a1.75,1.75,0,0,0-1-.9,1.54,1.54,0,0,0-.43-.06,1.46,1.46,0,0,0-.76.22,1.41,1.41,0,0,0-.75,1,1.9,1.9,0,0,0,0,.41,1.75,1.75,0,0,0,.19.84,1.45,1.45,0,0,0,1,.76,1.4,1.4,0,0,0,.41.06h2.43v1.11H78.27Z"></path><path id="Path_150" data-name="Path 150" class="cls-7" d="M90.86,91l.64,1a1.4,1.4,0,0,0-.77,1.24,1.33,1.33,0,0,0,.41,1,1.5,1.5,0,0,0,1.09.41h3.69V90.54h1.26v4.09h1.59v1.11H92.1A2.7,2.7,0,0,1,90.18,95a2.4,2.4,0,0,1-.72-1.77A2.56,2.56,0,0,1,90.86,91Zm1.26-1.85a.78.78,0,0,1,1.08,0,.62.62,0,0,1,.18.47.65.65,0,0,1-.18.47.72.72,0,0,1-1.08-.94Zm1.52.47A.73.73,0,0,1,94.82,89a.72.72,0,0,1,.25.57.64.64,0,0,1-.17.47.76.76,0,0,1-.54.2.8.8,0,0,1-.55-.2.73.73,0,0,1-.17-.47Z"></path><path id="Path_151" data-name="Path 151" class="cls-7" d="M97.77,95.74V94.63h1.59V90.54h1.28v5.2Zm.32-7.19a.72.72,0,0,1,.55-.21.69.69,0,0,1,.55.21.66.66,0,0,1,.18.47.67.67,0,0,1-.73.68.66.66,0,0,1-.71-.58V89a.78.78,0,0,1,.16-.47Zm.86-1.4a.66.66,0,0,1,.55-.21.69.69,0,0,1,.54.21.64.64,0,0,1,.17.47.6.6,0,0,1-.17.46.7.7,0,0,1-.54.22.7.7,0,0,1-.55-.22.69.69,0,0,1,0-.93Zm.85,1.39a.68.68,0,0,1,.54-.2.69.69,0,0,1,.55.21.67.67,0,0,1,0,1,.66.66,0,0,1-.52.19.69.69,0,0,1-.54-.21.74.74,0,0,1,0-.95Z"></path><path id="Path_152" data-name="Path 152" class="cls-7" d="M102.7,95.74V94.63h3.34v-.69a5.46,5.46,0,0,0,0-.57,3.88,3.88,0,0,0-.18-.69,3.54,3.54,0,0,0-1.41-1.51l.53-1a5.09,5.09,0,0,1,1.75,1.67,4.21,4.21,0,0,1,.56,1.49c.14.89.59,1.34,1.33,1.34h.62v1.11h-.62c-.68,0-1.11-.1-1.28-.31v.31Z"></path><path id="Path_153" data-name="Path 153" class="cls-7" d="M113,94.63a3.65,3.65,0,0,1-.35-1.81,1.49,1.49,0,0,0-.41-1.06,1.24,1.24,0,0,0-1-.45,1.46,1.46,0,0,0-1.31.92l-1-.55a2.8,2.8,0,0,1,1-1.12,2.59,2.59,0,0,1,1.36-.36,2.47,2.47,0,0,1,1.86.82,2.58,2.58,0,0,1,.76,1.86,2.25,2.25,0,0,0,.38,1.4,1,1,0,0,0,.86.34v1.12h-6.7V94.62Z"></path><path id="Path_154" data-name="Path 154" class="cls-7" d="M117.09,86.42a.63.63,0,0,1,0-.19,1.26,1.26,0,0,1,0-.33,1,1,0,0,1,1-.73.93.93,0,0,1,.29,0,1.14,1.14,0,0,1,.67.57l-.68.38q-.12-.21-.21-.24h-.07l-.09,0a.25.25,0,0,0-.1.15.22.22,0,0,0,0,.08.27.27,0,0,0,0,.12.21.21,0,0,0,.19.13h1v.73h-2.3v-.73Zm.26,9.32v-8.2h1.27v8.2Z"></path></g></g></g></g></svg> 