<?xml version="1.0" encoding="UTF-8"?> <svg xmlns="http://www.w3.org/2000/svg" xmlns:xlink="http://www.w3.org/1999/xlink" id="Layer_1" data-name="Layer 1" viewBox="0 0 582.6 233.94"><defs><style>.cls-1{fill:#fff;}.cls-2{fill:url(#linear-gradient);}.cls-3{opacity:0.32;}.cls-4{fill:url(#linear-gradient-2);}.cls-5{fill:#002fb8;}.cls-6{fill:#ffd792;}.cls-7{fill:#001781;}.cls-8{fill:#ffaf5d;}.cls-9{fill:#f99c31;}.cls-10{fill:#d9892c;}.cls-11{fill:#a15900;}.cls-12{fill:#e3902f;}.cls-13{fill:#e79230;}.cls-14{fill:#bb7525;}.cls-15{fill:#9e6100;}.cls-16{fill:#e18e2e;}.cls-17{fill:#dd8c2d;}.cls-18{fill:#e88c31;}.cls-19{fill:#c97e2e;}.cls-20{fill:#e5843c;}.cls-21{fill:#f96f31;}.cls-22{fill:#f97615;}.cls-23{fill:#170200;}.cls-24{fill:#190300;}.cls-25{fill:#1c0300;}.cls-26{fill:#ef851b;opacity:0.9;isolation:isolate;}.cls-27{fill:#ffa64d;}.cls-28{fill:#dd6e0a;}.cls-29{fill:#fecf8c;}.cls-30{fill:#df7600;}</style><linearGradient id="linear-gradient" x1="141.25" y1="267.44" x2="141.55" y2="267.44" gradientTransform="matrix(678.06, 0, 0, -689.08, -95427.79, 184400.49)" gradientUnits="userSpaceOnUse"><stop offset="0" stop-color="#fff"></stop><stop offset="1"></stop></linearGradient><linearGradient id="linear-gradient-2" x1="141.22" y1="267.56" x2="141.66" y2="267.24" gradientTransform="matrix(672.16, 0, 0, -683.17, -94584.92, 182821.86)" gradientUnits="userSpaceOnUse"><stop offset="0" stop-color="#000257"></stop><stop offset="0.01" stop-color="#090b5d"></stop><stop offset="0.05" stop-color="#37387b"></stop><stop offset="0.09" stop-color="#626397"></stop><stop offset="0.14" stop-color="#8788b0"></stop><stop offset="0.2" stop-color="#a8a9c5"></stop><stop offset="0.25" stop-color="#c3c4d7"></stop><stop offset="0.32" stop-color="#d9d9e6"></stop><stop offset="0.4" stop-color="#eaeaf1"></stop><stop offset="0.49" stop-color="#f6f6f9"></stop><stop offset="0.63" stop-color="#fdfdfd"></stop><stop offset="1" stop-color="#fff"></stop></linearGradient></defs><g id="Group_29" data-name="Group 29"><g id="Group_14" data-name="Group 14"><g id="Layer_22" data-name="Layer 22"><g id="Group_12" data-name="Group 12"><g id="Group_1" data-name="Group 1"><ellipse id="Ellipse_1" data-name="Ellipse 1" class="cls-1" cx="451.41" cy="117.41" rx="102.71" ry="104.4"></ellipse><path id="Path_1" data-name="Path 1" class="cls-2" d="M451.41,222.71c-57.13,0-103.62-47.24-103.62-105.3s46.49-105.3,103.62-105.3S555,59.35,555,117.41,508.54,222.71,451.41,222.71Zm0-208.8c-56.14,0-101.81,46.43-101.81,103.5S395.27,220.9,451.41,220.9s101.81-46.42,101.81-103.49S507.55,13.91,451.41,13.91Z"></path></g><g id="Group_2" data-name="Group 2" class="cls-3"><ellipse id="Ellipse_2" data-name="Ellipse 2" class="cls-4" cx="451.38" cy="117.32" rx="102.71" ry="104.4"></ellipse><path id="Path_2" data-name="Path 2" class="cls-5" d="M451.38,222.61c-57.13,0-103.61-47.23-103.61-105.29S394.25,12,451.38,12,555,59.25,555,117.32,508.52,222.61,451.38,222.61Zm0-208.79c-56.14,0-101.81,46.43-101.81,103.5s45.67,103.49,101.81,103.49S553.2,174.38,553.2,117.32,507.52,13.82,451.38,13.82Z"></path></g><path id="Path_3" data-name="Path 3" class="cls-6" d="M526.58,85.14s6.16-.36,4.62,10.19c0,1.45,10.76,20.32.25,49.68.78.47-22.83,46.06-81.34,43.07-1,.22-27.2-5.13-47.73,14.67,0,0,0,0,0,0-.25.36-13.46-7.23-23.15-16.59a77.78,77.78,0,0,1-15.14-20.58l4.41-1.9c2.21-.95,55.79,4.18,70.22-.57-1.13,0,28.14-9.76,28.14-9.76l12.26-12.86-1.24-7,.62-8.4,3.46-9.09,13.64-10.73L507.16,86l13.77-2.2Z"></path><path id="Path_4" data-name="Path 4" class="cls-7" d="M451.65,229.33c-61.17,0-110.95-50.59-110.95-112.78A114,114,0,0,1,355.86,59.7,110.49,110.49,0,0,1,451.65,3.78c61.18,0,111,50.59,111,112.77S512.83,229.33,451.65,229.33Zm0-222.85C392,6.48,343.41,55.86,343.41,116.55S392,226.62,451.65,226.62,559.9,177.24,559.9,116.55,511.34,6.48,451.65,6.48Z"></path><path id="Path_5" data-name="Path 5" class="cls-8" d="M364.83,163.14l3.46,3.68h6.6L373.81,163Z"></path><rect id="Rectangle_1" data-name="Rectangle 1" class="cls-9" x="486.45" y="84.9" width="2.92" height="6.96" rx="0.45"></rect><path id="Path_6" data-name="Path 6" class="cls-9" d="M487.72,87.76v2a.3.3,0,1,1-.6,0v-2a.3.3,0,1,1,.6,0Z"></path><path id="Path_7" data-name="Path 7" class="cls-9" d="M492.78,53.12v.12c-.07,1.66-.79,3-1.61,2.94s-1.27-1.08-1.35-2.46l-1.53.32a3.68,3.68,0,0,1,0,.47c-.07,1.87-1,3.34-2,3.29s-1.65-1.35-1.7-3l-1.06.21c0,.11,0,.22,0,.32,0,1.88-1,3.39-2.16,3.39s-2-1.22-2.13-2.83l-.73.15a1.2,1.2,0,0,1,0,.19c0,1.87-1,3.39-2.16,3.39-1,0-1.91-1.16-2.12-2.7l-.93.19a5.79,5.79,0,0,1,0,.72c0,1.87-1,3.39-2.16,3.39s-2.1-1.44-2.15-3.24l-1.42.29c0,.15,0,.3,0,.45,0,1.87-1,3.39-2.17,3.39s-2-1.29-2.14-3l-2,.42v0c0,1.86-1,3.38-2.17,3.38-1,0-1.86-1.09-2.09-2.56h0l-.71.14q-.24,30.63-.46,61.25l28.28-3.31,10.85.23V52.66ZM488.6,90a.9.9,0,0,1-.83,1,.89.89,0,0,1-.94-.83V86.76a.9.9,0,0,1,.88-.92.89.89,0,0,1,.63.27,1,1,0,0,1,.26.65Z"></path><path id="Path_8" data-name="Path 8" class="cls-10" d="M495,52.66l31.56,5.62v30s-10.14-.94-14.37,1.6-11.65,14.19-13.35,22-3.84,7-3.84,7Z"></path><path id="Path_9" data-name="Path 9" class="cls-11" d="M482.18,87.6c0-10-10.95-10.41-12.56,0v26.24h12.56Z"></path><path id="Path_10" data-name="Path 10" class="cls-12" d="M481.25,113.2l.17-24.83c-.26-6.63-5.74-7.44-6.32-1.48l-.21,26.31Z"></path><path id="Path_11" data-name="Path 11" class="cls-11" d="M471.24,67.91s.34-.89,1.11-1c.17,0,6.5-.71,6.5-.71s1.2-.27,1.45,1.25c0,.09.34,9.45.34,9.45s.35.8-1.36,1.16c-.09.09-6.08,1-6.08,1s-.94.63-1.45-1.16Z"></path><path id="Path_12" data-name="Path 12" class="cls-13" d="M473.12,69.7v6s.81,1.7,1.22,0c.06,0,0-6,0-6S474.14,68.54,473.12,69.7Z"></path><path id="Path_13" data-name="Path 13" class="cls-13" d="M475.78,69v6.68s.81,1.89,1.22,0c.06,0,0-6.68,0-6.68S476.81,67.73,475.78,69Z"></path><path id="Path_14" data-name="Path 14" class="cls-13" d="M477.88,68.52v7s.81,2,1.22,0c.06,0,0-7,0-7S478.9,67.15,477.88,68.52Z"></path><path id="Path_15" data-name="Path 15" class="cls-9" d="M487.72,87.76v2a.3.3,0,1,1-.6,0v-2a.3.3,0,1,1,.6,0Z"></path><path id="Path_16" data-name="Path 16" class="cls-9" d="M490.11,85.56a2.11,2.11,0,0,0-1.51-.66h-.22a2.22,2.22,0,0,0-1.93,2.24v3.54a2.2,2.2,0,0,0,1.93,2.23h.22a2.2,2.2,0,0,0,2.15-2.24V87.15A2.31,2.31,0,0,0,490.11,85.56Zm-2.4,5.36a.9.9,0,0,1-.88-.92V86.76a.9.9,0,0,1,.88-.92.89.89,0,0,1,.63.27,1,1,0,0,1,.26.65V90A.91.91,0,0,1,487.71,90.92Z"></path><path id="Path_17" data-name="Path 17" class="cls-1" d="M487.72,87.76v2a.3.3,0,1,1-.6,0v-2a.3.3,0,1,1,.6,0Z"></path><path id="Path_18" data-name="Path 18" class="cls-11" d="M489.68,85.56a2.07,2.07,0,0,0-1.52-.66A2.2,2.2,0,0,0,486,87.14v3.55a2.2,2.2,0,0,0,2.15,2.24h.22a2.2,2.2,0,0,0,1.93-2.23V87.15A2.3,2.3,0,0,0,489.68,85.56ZM488.6,90a.9.9,0,0,1-.83,1,.89.89,0,0,1-.94-.83V86.76a.9.9,0,0,1,.88-.92.89.89,0,0,1,.63.27,1,1,0,0,1,.26.65Z"></path><path id="Path_19" data-name="Path 19" class="cls-11" d="M496.53,85a2.07,2.07,0,0,0-1.51-.66,2.19,2.19,0,0,0-2.15,2.24v3.55A2.19,2.19,0,0,0,495,92.4h.21a2.22,2.22,0,0,0,1.93-2.24V86.61A2.21,2.21,0,0,0,496.53,85Zm-1.08,4.44a.89.89,0,0,1-1.77.08V86.23a.9.9,0,0,1,.89-.92.86.86,0,0,1,.62.27.92.92,0,0,1,.26.65Z"></path><path id="Path_20" data-name="Path 20" class="cls-11" d="M466.22,88.1a2,2,0,0,0-1.51-.65,2.19,2.19,0,0,0-2.15,2.24v3.54a2.2,2.2,0,0,0,2.15,2.24h.21a2.22,2.22,0,0,0,1.94-2.23V89.69A2.31,2.31,0,0,0,466.22,88.1Zm-1.08,4.44a.88.88,0,0,1-.82.95.89.89,0,0,1-.95-.82V89.3a.92.92,0,0,1,.89-.92.86.86,0,0,1,.62.27.94.94,0,0,1,.26.65Z"></path><path id="Path_21" data-name="Path 21" class="cls-11" d="M459.56,89a2.07,2.07,0,0,0-1.52-.66,2.19,2.19,0,0,0-2.14,2.24v3.55A2.19,2.19,0,0,0,458,96.41h.22a2.21,2.21,0,0,0,1.93-2.23V90.62A2.27,2.27,0,0,0,459.56,89Zm-1.08,4.44a.89.89,0,0,1-1.77.07V90.24a.9.9,0,0,1,.89-.92.86.86,0,0,1,.62.27.92.92,0,0,1,.26.65Z"></path><path id="Path_22" data-name="Path 22" class="cls-1" d="M487.72,87.76v2a.3.3,0,1,1-.6,0v-2a.3.3,0,1,1,.6,0Z"></path><path id="Path_23" data-name="Path 23" class="cls-11" d="M487.72,87.76v2a.3.3,0,1,1-.6,0v-2a.3.3,0,1,1,.6,0Z"></path><path id="Path_24" data-name="Path 24" class="cls-11" d="M494.57,86.85v2a.3.3,0,1,1-.6,0v-2a.3.3,0,1,1,.6,0Z"></path><path id="Path_25" data-name="Path 25" class="cls-11" d="M464.28,89.93v2a.31.31,0,0,1-.29.31.3.3,0,0,1-.31-.29v-2a.3.3,0,0,1,.6,0Z"></path><path id="Path_26" data-name="Path 26" class="cls-11" d="M457.89,90.87v2a.3.3,0,0,1-.28.32.3.3,0,0,1-.31-.28v-2a.28.28,0,0,1,.28-.31.29.29,0,0,1,.31.28Z"></path><path id="Path_27" data-name="Path 27" class="cls-14" d="M469.1,111.24h-1.24a1,1,0,0,0-1,1L466.8,115a1,1,0,0,1-1,1l-3.16.12a1,1,0,0,0-1,1.09v0l.12,2.43a1,1,0,0,1-.93,1.1l-4.07.32a1,1,0,0,1-1.08-.88l-.08-.55a1,1,0,0,0-1-.89h-6.57a1,1,0,0,1-1-.94l-.37-3.68a1,1,0,0,0-1-1h-7.27a1,1,0,0,0-1,1L437,134.39a1,1,0,0,0,1,1.07,1.12,1.12,0,0,0,.36-.05l12.3-4.27a.92.92,0,0,1,.57,0l4.21,1.14a1,1,0,0,0,.78-.11l2.19-1.39a1.33,1.33,0,0,1,.24-.11l5.42-1.64a1.05,1.05,0,0,0,.3-.15l2.4-1.78a.42.42,0,0,1,.14-.09l5.32-2.75a1,1,0,0,0,.39-.35l2.34-3.54a1,1,0,0,0-1-1.64l-2.48.51a1,1,0,0,1-1.19-.82,1.11,1.11,0,0,1,0-.19l-.14-5.94A1,1,0,0,0,469.1,111.24Z"></path><path id="Path_28" data-name="Path 28" class="cls-9" d="M483,117.33l1.8.26c.91.12,1.8.21,2.65.27a11.78,11.78,0,0,0-5.65,4.77A18.54,18.54,0,0,0,480,128.4a2,2,0,0,1-.11.59,2.13,2.13,0,0,1-.75,1c-.09.42-.17.85-.23,1.3a20.29,20.29,0,0,0,.48,8l-.12.25c-4.47,9.15-9.9,15-15.09,18.66l-.7.49c-3.95,2.73-7.58,3.84-17.91,5.94-8.5,1.72-9.07,1.56-9.1,1.42s.46-.39.93-.6c.11-.78.21-1.52.21-1.51s-.1.36,0,.53c.23.37,1.59.09,5.37-1.72,0-2.6-.1-5.22-.15-7.86-.08-3.93-.17-7.87-.2-7.89a4.43,4.43,0,0,0-3.15-4.68,2.49,2.49,0,0,1-.92-.26,2.56,2.56,0,0,1-.95-.87c0-3.83-.05-7.7-.05-11.59q0-6.35.06-12.57a.9.9,0,0,1,.55-.9s7.86-.17,7.92-.14a.86.86,0,0,1,1,.61.78.78,0,0,1,0,.26l.13,8.45c.35,1.12,1.09,1,1.09,1H453a.82.82,0,0,1,1,.75v1c.29.75.67.59.67.59s4,0,3.93,0a.75.75,0,0,0,.74-.72v-3a.54.54,0,0,0,0-.18.88.88,0,0,1,.64-.73l6.88-.08a1.67,1.67,0,0,0,1.46-1.29s.08-3.23.06-3.26a1.34,1.34,0,0,1,1.13-1.09s4.76,0,4.78-.06a1.17,1.17,0,0,0,1.06-.91s.09-2.81.11-2.84c.11-.61,1-.55,1-.55h5.78Z"></path><g id="Group_3" data-name="Group 3"><path id="Path_29" data-name="Path 29" class="cls-11" d="M444.11,163.43l-6.74,2-1.66-26.77a3.66,3.66,0,0,1,3.32-3.95h.22a3.34,3.34,0,0,1,3.27,3.2Z"></path><path id="Path_30" data-name="Path 30" class="cls-15" d="M437,166l-1.71-27.33a4.14,4.14,0,0,1,3.75-4.43,3.79,3.79,0,0,1,4,3.62l1.62,25.91Zm2.29-30.86h-.2a3.23,3.23,0,0,0-2.9,3.48l1.64,26.2,5.85-1.71-1.58-25.2A2.89,2.89,0,0,0,439.25,135.13Z"></path></g><path id="Path_31" data-name="Path 31" class="cls-14" d="M437.59,165.85l-7.88,1.07V102.83h7.88Z"></path><path id="Path_32" data-name="Path 32" class="cls-9" d="M429.71,166.92H405.84V106.16l23.86-3.33Z"></path><path id="Rectangle_2" data-name="Rectangle 2" class="cls-11" d="M416,124.91h5.65a1.12,1.12,0,0,1,1.12,1.11h0v19.25h-8.2V126.34a1.43,1.43,0,0,1,1.43-1.43Z"></path><path id="Rectangle_3" data-name="Rectangle 3" class="cls-16" d="M418.89,127.86h2.92a.55.55,0,0,1,.55.56h0v16.26h-4.23V128.62A.76.76,0,0,1,418.89,127.86Z"></path><rect id="Rectangle_4" data-name="Rectangle 4" class="cls-17" x="414.58" y="110.59" width="5.67" height="9.23" rx="0.88"></rect><rect id="Rectangle_5" data-name="Rectangle 5" class="cls-11" x="415.16" y="110.86" width="4.77" height="7.06" rx="0.74"></rect><rect id="Rectangle_6" data-name="Rectangle 6" class="cls-9" x="416.02" y="111.61" width="3.29" height="4.47" rx="0.51"></rect><path id="Path_33" data-name="Path 33" class="cls-18" d="M413.92,143H403.79v4.15h-8.6v3.61h-7.06v3h-6.54v2.32h-5.52v3h-5.64v2.64h-5.78v1.38H383l30.92-13.29Z"></path><path id="Path_34" data-name="Path 34" class="cls-19" d="M423.93,145.27H411v5.06H400.19v3.44H394v3.52h-7.7v1.77h-5.13V162h-7.58v2.67H368.5v2.28h55.43Z"></path><path id="Path_35" data-name="Path 35" class="cls-9" d="M421.37,152.6s-4.32,2.14-4,5c0,.2,0,5.46,0,5.46h4Z"></path><g id="Group_4" data-name="Group 4"><path id="Path_36" data-name="Path 36" class="cls-11" d="M453.15,161.11l-6.73,2-1.67-26.77a3.68,3.68,0,0,1,3.32-3.95h.22a3.32,3.32,0,0,1,3.27,3.2Z"></path><path id="Path_37" data-name="Path 37" class="cls-15" d="M446,163.67l-1.7-27.33a4.12,4.12,0,0,1,3.74-4.43h.25a3.81,3.81,0,0,1,3.72,3.63l1.62,25.91Zm2.29-30.86h-.17a3.22,3.22,0,0,0-2.92,3.48l1.63,26.2,5.85-1.71-1.57-25.19a2.89,2.89,0,0,0-2.82-2.78Z"></path></g><g id="Group_5" data-name="Group 5"><path id="Path_38" data-name="Path 38" class="cls-11" d="M464,155.33a50.78,50.78,0,0,1-6.12,3.7l-.5,0-1.48-23.62a3.67,3.67,0,0,1,3.33-3.95h.21a3.32,3.32,0,0,1,3.27,3.2Z"></path><path id="Path_39" data-name="Path 39" class="cls-15" d="M456.93,159.54l-1.5-24.07a4.12,4.12,0,0,1,3.75-4.43h.24a3.79,3.79,0,0,1,3.72,3.62l1.31,20.9-.21.14a51,51,0,0,1-6.18,3.73l-.17,0Zm2.49-27.6h-.17a3.23,3.23,0,0,0-2.92,3.48l1.45,23.14a49.74,49.74,0,0,0,5.73-3.45l-1.27-20.4a2.89,2.89,0,0,0-2.82-2.77Z"></path></g><g id="Group_6" data-name="Group 6"><path id="Path_40" data-name="Path 40" class="cls-11" d="M472.49,148a57.56,57.56,0,0,1-6.39,5.8H466l-1.39-22.32a3.66,3.66,0,0,1,3.32-3.95h.22a3.35,3.35,0,0,1,3.27,3.2Z"></path><path id="Path_41" data-name="Path 41" class="cls-15" d="M465.58,154.25l-1.42-22.77a4.11,4.11,0,0,1,3.74-4.43h.25a3.8,3.8,0,0,1,3.72,3.62L473,148.13l-.14.14a58.51,58.51,0,0,1-6.44,5.85l-.11.08Zm2.57-26.31H468a3.22,3.22,0,0,0-2.9,3.47L466.4,153a57.29,57.29,0,0,0,5.63-5.16L471,130.71a2.9,2.9,0,0,0-2.82-2.77Z"></path></g><g id="Group_7" data-name="Group 7"><path id="Path_42" data-name="Path 42" class="cls-11" d="M479.36,139.24l-.12.25a60.37,60.37,0,0,1-4.2,5.62l-.88.06L473,127.08a3.67,3.67,0,0,1,3.32-4h.22a3.33,3.33,0,0,1,3.27,3.2l.13,2.08,0-.46h0a16.74,16.74,0,0,0-1.09,3.93A17.32,17.32,0,0,0,479.36,139.24Z"></path><path id="Path_43" data-name="Path 43" class="cls-15" d="M473.73,145.65l-1.15-18.54a4.11,4.11,0,0,1,3.74-4.43h.25a3.79,3.79,0,0,1,3.69,3.32v0l.15,2.42h-.18a17.56,17.56,0,0,0-.95,3.55,16.92,16.92,0,0,0,.5,7.18l0,.17-.2.42a63.88,63.88,0,0,1-4.25,5.7l-.12.14Zm2.84-22.08h-.19a3.21,3.21,0,0,0-2.9,3.47l1.1,17.64.24,0a57.89,57.89,0,0,0,4-5.43l0,0a17.63,17.63,0,0,1-.48-7.4,18,18,0,0,1,1.08-3.94l-.09-1.52a2.9,2.9,0,0,0-2.82-2.77Z"></path></g><path id="Path_44" data-name="Path 44" class="cls-11" d="M459.93,74.36a2,2,0,1,0,1.89,2.06v-.09A1.93,1.93,0,0,0,459.93,74.36Zm0,2.79a.92.92,0,0,1-1.06-.76.92.92,0,0,1,1.82-.3.76.76,0,0,1,0,.15.84.84,0,0,1-.77.91Z"></path><path id="Path_45" data-name="Path 45" class="cls-11" d="M464.25,73.81a1.91,1.91,0,1,0,1.77,2v-.14A1.83,1.83,0,0,0,464.25,73.81Zm0,2.69a.88.88,0,0,1-1-.7.89.89,0,0,1,.7-1.06.87.87,0,0,1,1.07.88.81.81,0,0,1-.71.88Z"></path><path id="Path_46" data-name="Path 46" class="cls-11" d="M468.33,73.41a1.91,1.91,0,1,0,1.76,2s0-.09,0-.14A1.85,1.85,0,0,0,468.33,73.41Zm0,2.69a.9.9,0,1,1,.7-1.06,1.1,1.1,0,0,1,0,.18A.81.81,0,0,1,468.35,76.1Z"></path><path id="Path_47" data-name="Path 47" class="cls-11" d="M483.19,71.16a1.91,1.91,0,1,0,1.76,2v-.15A1.83,1.83,0,0,0,483.19,71.16Zm0,2.7a.91.91,0,0,1-1.06-.71.9.9,0,0,1,1.76-.35,1.11,1.11,0,0,1,0,.17.82.82,0,0,1-.72.89Z"></path><path id="Path_48" data-name="Path 48" class="cls-11" d="M487.42,70.76a1.91,1.91,0,1,0,1.76,2,.76.76,0,0,0,0-.15A1.83,1.83,0,0,0,487.42,70.76Zm0,2.69a.9.9,0,0,1-1.06-.7.91.91,0,0,1,.71-1.06.9.9,0,0,1,1.05.71.88.88,0,0,1,0,.17.81.81,0,0,1-.72.88Z"></path><path id="Path_49" data-name="Path 49" class="cls-11" d="M491.72,70.16a1.91,1.91,0,1,0,1.76,2s0-.09,0-.14A1.84,1.84,0,0,0,491.72,70.16Zm0,2.69a.89.89,0,0,1-1.06-.7.91.91,0,0,1,.71-1.06.9.9,0,0,1,1.05.7,1.1,1.1,0,0,1,0,.18A.81.81,0,0,1,491.74,72.85Z"></path><path id="Path_50" data-name="Path 50" class="cls-11" d="M462.65,70.68a1.84,1.84,0,0,1-3.27.11s-.22-.87.55-1a20.42,20.42,0,0,0,0-2.07s.4-1,1,0c0,0,0,1.74,0,2C460.93,69.68,462.65,70.25,462.65,70.68Z"></path><path id="Path_51" data-name="Path 51" class="cls-11" d="M468,69.81a1.85,1.85,0,0,1-3.27.11s-.22-.88.55-1a20.42,20.42,0,0,0,0-2.07s.41-1,1,0c0,0,0,1.73,0,2C466.29,68.81,468,69.38,468,69.81Z"></path><path id="Path_52" data-name="Path 52" class="cls-11" d="M485.58,67.58a1.86,1.86,0,0,1-3.28.1s-.21-.87.56-1a20.42,20.42,0,0,0,0-2.07s.41-1,1,0c0,0,0,1.74,0,2C483.86,66.57,485.58,67.14,485.58,67.58Z"></path><path id="Path_53" data-name="Path 53" class="cls-11" d="M491,66.84a1.85,1.85,0,0,1-3.27.11s-.22-.88.56-1c.06,0,0-2.07,0-2.07s.4-1,1,0c0,0,0,1.74,0,2C489.3,65.84,491,66.41,491,66.84Z"></path><path id="Path_54" data-name="Path 54" class="cls-11" d="M426.63,115.56a1.86,1.86,0,0,1-3.28.1s-.21-.87.56-1c.06,0,0-2.08,0-2.08s.41-1,1,0c0,0,0,1.74,0,2C424.91,114.56,426.63,115.13,426.63,115.56Z"></path><path id="Path_55" data-name="Path 55" class="cls-11" d="M412.16,116.38a1.85,1.85,0,0,1-3.27.1s-.22-.87.55-1a20.62,20.62,0,0,0,0-2.08s.4-1,1,0c0,0,0,1.74,0,2C410.44,115.37,412.16,115.94,412.16,116.38Z"></path><g id="Group_8" data-name="Group 8"><path id="Path_56" data-name="Path 56" class="cls-20" d="M484.15,186.36s4.45-.53,0-4.46c-.34-.71,1-13.2,1-13.2a1.71,1.71,0,0,1,2.35-1.78c-.43-.18,6.58.89,9.49,3.21a12.35,12.35,0,0,0,2.57.18s4.53-6.78,11.25-5.71c.38,0,3.63,15.88,3.63,15.88s-5.13,2,0,4.1"></path><path id="Path_57" data-name="Path 57" class="cls-21" d="M484.21,186.81l-.11-.89c.36,0,1.36-.3,1.55-.89.1-.36,0-1.19-1.8-2.79l-.11-.14c-.34-.72.45-8.73.95-13.44h0a2.44,2.44,0,0,1,.73-1.81,2.37,2.37,0,0,1,2.11-.38c1.39,0,7.25,1.34,9.71,3.29a20.55,20.55,0,0,0,2.08.1c.84-1.16,5.22-6.7,11.55-5.7.37,0,.68,0,4,16.23l.07.37-.36.14c-.64.25-2,1-2,1.66,0,.48.73,1.07,2,1.6l-.35.84c-1.74-.73-2.57-1.53-2.56-2.46,0-1.18,1.5-2,2.22-2.33-1.13-5.47-2.93-13.87-3.41-15.2-6.26-.79-10.54,5.49-10.59,5.55l-.13.2h-.24c-2.27,0-2.84-.1-3-.37-2.6-2-8.5-3-9.06-3V167l-.12.37a1.52,1.52,0,0,0-1.38.18,1.58,1.58,0,0,0-.42,1.14c-.48,4.56-1.17,11.88-1,13,1.62,1.46,2.25,2.65,1.95,3.64C486.11,186.57,484.28,186.8,484.21,186.81Z"></path></g><path id="Path_58" data-name="Path 58" class="cls-11" d="M496.13,183.15s-7-2.15-8.64-.71c-.09,0,1.62.62,0,2.59.08,0,7.27.17,8.64-.72A5.6,5.6,0,0,0,496.13,183.15Z"></path><path id="Path_59" data-name="Path 59" class="cls-11" d="M511.18,181.28s-1.71,1.21,0,2.21a4.16,4.16,0,0,1-3.76,0s-.26-.9-.26-.9S508.1,180.48,511.18,181.28Z"></path><path id="Path_60" data-name="Path 60" class="cls-11" d="M500.06,170.76s5.22-6.14,9.11-4.68c.47.12,3.38,12.88,3.38,12.88s-7.61.48-9.32,3.54c0-.06-4.54-.56-4.54-.56s-9-2.62-12.74-1.28c-.17-.09,1.11-11.87,1.11-11.87a1.11,1.11,0,0,1,1-.62c.77,0,7.35,2.05,8.64,3.12-.09.18.94.36.94.36h1.6Z"></path><path id="Path_61" data-name="Path 61" class="cls-22" d="M500.64,174.18s5.28-5.12,7.14-4.5c-.1,0,1.86,6.69,1.86,6.69s-6.72,1.16-8.38,3c0,0-8.9-4.11-13.76-2.5-.1.09.52-5.17.52-5.17s2.37-1.27,10.55,2.44C498.47,174.23,500.64,174.18,500.64,174.18Z"></path><g id="Group_9" data-name="Group 9"><path id="Path_62" data-name="Path 62" class="cls-23" d="M401.92,173,401,176.3c-.36,1.27,0,1.81.75,1.81s1.47-.55,1.82-1.79l.95-3.35h.7l-.94,3.3c-.49,1.74-1.56,2.45-2.73,2.44s-1.74-.67-1.24-2.43l.94-3.33Z"></path><path id="Path_63" data-name="Path 63" class="cls-23" d="M404.8,178.64l1.6-5.66h.76l.92,2.87a12.77,12.77,0,0,1,.44,1.85h0c.15-.76.33-1.45.58-2.32l.67-2.38h.65l-1.6,5.66h-.7l-.9-2.88a13.52,13.52,0,0,1-.47-1.9h0c-.16.72-.34,1.4-.61,2.33l-.68,2.42Z"></path><path id="Path_64" data-name="Path 64" class="cls-23" d="M412.36,173l-1.6,5.66h-.7l1.6-5.65Z"></path><path id="Path_65" data-name="Path 65" class="cls-23" d="M413.16,178.7,413,173h.75l.05,2.8c0,.76,0,1.45,0,2.11h0c.34-.65.76-1.36,1.21-2.1l1.7-2.79h.74l-3.52,5.64Z"></path><path id="Path_66" data-name="Path 66" class="cls-23" d="M420,176.08h-2.09l-.58,2,2.34,0-.17.61-3,0,1.6-5.66,2.91,0-.17.61-2.21,0-.51,1.8h2.09Z"></path><path id="Path_67" data-name="Path 67" class="cls-23" d="M422,173.16a9,9,0,0,1,1.37-.11,1.74,1.74,0,0,1,1.44.48,1.21,1.21,0,0,1,.11,1.08,2.12,2.12,0,0,1-1.42,1.43v0c.37.16.51.57.47,1.15a9,9,0,0,0,0,1.56h-.73a6.78,6.78,0,0,1,0-1.35c.05-.78-.15-1.08-.78-1.11h-.65l-.7,2.45h-.69Zm0,2.58h.71a1.5,1.5,0,0,0,1.52-1.07c.21-.73-.2-1.05-.94-1.06a2.84,2.84,0,0,0-.71.06Z"></path><path id="Path_68" data-name="Path 68" class="cls-23" d="M424.84,177.88a1.88,1.88,0,0,0,1.14.38,1.36,1.36,0,0,0,1.4-1c.15-.52-.05-.83-.7-1.12s-1.19-.83-1-1.62a2.19,2.19,0,0,1,2.18-1.52,2,2,0,0,1,1.11.28l-.36.6a1.61,1.61,0,0,0-.95-.28,1.23,1.23,0,0,0-1.25.84c-.15.53.1.79.76,1.1.81.38,1.14.84.9,1.67a2.29,2.29,0,0,1-2.34,1.62,2.11,2.11,0,0,1-1.27-.38Z"></path><path id="Path_69" data-name="Path 69" class="cls-23" d="M430.93,173.15l-1.6,5.66h-.7l1.6-5.66Z"></path><path id="Path_70" data-name="Path 70" class="cls-23" d="M433,173.78h-1.64l.17-.62,4,0-.17.62h-1.65l-1.43,5h-.7Z"></path><path id="Path_71" data-name="Path 71" class="cls-23" d="M435.94,178.85l.68-2.4-.79-3.27h.8l.31,1.57c.09.42.16.77.21,1.17h0c.25-.38.54-.74.87-1.17l1.22-1.56H440l-2.72,3.24-.68,2.41Z"></path><path id="Path_72" data-name="Path 72" class="cls-24" d="M417.61,184.53a3.66,3.66,0,0,1-3.34,3c-1.43,0-2.1-1.18-1.61-2.89a3.7,3.7,0,0,1,3.33-2.95C417.46,181.66,418.09,182.85,417.61,184.53Zm-4.21.06c-.34,1.21,0,2.3,1.07,2.31s2-1.06,2.39-2.34c.32-1.13.1-2.31-1.06-2.32s-2.05,1.11-2.4,2.35Z"></path><path id="Path_73" data-name="Path 73" class="cls-24" d="M419.3,181.76l2.9,0-.17.61h-2.2l-.54,1.88h2l-.17.61h-2l-.72,2.56h-.7Z"></path><path id="Path_74" data-name="Path 74" class="cls-25" d="M402.5,194.23,401.44,196h-.72l3.43-5.65H405l.24,5.67h-.74l-.07-1.79Zm1.93-.56-.08-1.63c0-.37,0-.71,0-1h0c-.17.33-.35.67-.56,1l-1,1.63Z"></path><path id="Path_75" data-name="Path 75" class="cls-25" d="M407.62,190.38h.7l-1.43,5,2.3,0-.17.62-3,0Z"></path><path id="Path_76" data-name="Path 76" class="cls-25" d="M413.33,193.43l-2.09,0-.58,2.05H413l-.17.61-3,0,1.6-5.66,2.92,0-.18.61h-2.21l-.51,1.79h2.09Z"></path><path id="Path_77" data-name="Path 77" class="cls-25" d="M415.31,190.5a7,7,0,0,1,1.37-.1,1.67,1.67,0,0,1,1.38.48,1.3,1.3,0,0,1,.13,1.18,2.25,2.25,0,0,1-.76,1.21,2.78,2.78,0,0,1-1.82.61,1.72,1.72,0,0,1-.55-.06l-.64,2.27h-.69Zm-.08,2.73a2.1,2.1,0,0,0,.56.07,1.64,1.64,0,0,0,1.7-1.2c.21-.75-.2-1.12-1-1.13a3.71,3.71,0,0,0-.67.06Z"></path><path id="Path_78" data-name="Path 78" class="cls-25" d="M419.57,190.53a7.83,7.83,0,0,1,1.37-.11,1.67,1.67,0,0,1,1.37.49,1.27,1.27,0,0,1,.14,1.18,2.29,2.29,0,0,1-.76,1.21,2.78,2.78,0,0,1-1.82.61,1.72,1.72,0,0,1-.55-.06l-.64,2.27H418Zm-.08,2.73a1.75,1.75,0,0,0,.56.06,1.63,1.63,0,0,0,1.7-1.19c.21-.75-.2-1.12-1-1.13a3.91,3.91,0,0,0-.68.06Z"></path><path id="Path_79" data-name="Path 79" class="cls-25" d="M427.67,193.29a3.66,3.66,0,0,1-3.35,3c-1.42,0-2.09-1.17-1.61-2.89a3.72,3.72,0,0,1,3.34-3C427.52,190.42,428.14,191.61,427.67,193.29Zm-4.21.06c-.35,1.21,0,2.3,1.07,2.31s2-1,2.39-2.34c.32-1.13.09-2.31-1.07-2.31s-2.05,1.11-2.39,2.34Z"></path></g><path id="Path_80" data-name="Path 80" class="cls-26" d="M507.48,189.61h1.93l-1-1.21a12.47,12.47,0,0,1-2.43-6,12.92,12.92,0,0,1,1.28-7.31,1.75,1.75,0,0,0-1.36-2.51,1.65,1.65,0,0,1-.83-2.32c0,.1-.09-1.76-1.5-2-.08.19-1.84-1-1.05-3.7,0-.19,1.14-.75-2.11-3.9-.09,0-.7-2,.79-1.85,0,0,1.27-.75-1-2-.06,0-1.64.1-1.38-2.68.09.18-1.2-.56,0-1.86,0,.19,2-2.48-1.38-5.47.09,0-.4-3-.4-3l-.47-.44v3.52s-.09,1.86-1.06,2.23c.18.09-2,1.85,0,3.24a7.7,7.7,0,0,1,.62,1.21l-1.48,1-.37,1.39-2.72.09s-7.38-1.39-7.2-9l-.88.09s-1.14,7.51,2.64,11.22c.08.28.52,1,.08,1.48-.08.37-1.75.56-.17,2.32a5.74,5.74,0,0,1,2.11,2.23c.17.28-1.85,4.22,1.22,5,0,0,2.64.94,1.06,2.06s1.32,2.59,1.32,2.59,3.33-.18,2.81,2.88c.09.28-2,2.69,3.07,4.36a13.5,13.5,0,0,1,2.53.94A16.77,16.77,0,0,1,507.48,189.61Z"></path><path id="Path_81" data-name="Path 81" class="cls-27" d="M505.55,184a23.9,23.9,0,0,1,0-8.07c0,.1.61-1.2-1-.37-.09,0-1.84,1.3-1.05-1.39-.09.09.26-2.78.26-2.78s.35-2.57-1.67-2.12c-.09,0,.35,1.19-1.75,1.38a1.82,1.82,0,0,0,.61,2.41C501.07,173.28,505.55,184,505.55,184Z"></path><path id="Path_82" data-name="Path 82" class="cls-27" d="M502.41,181.73a24,24,0,0,0-6.15-4.78c.07.06-1.25-.24.23-1,.05-.07,2-.65-.49-1.64.11,0-2.27-1.44-2.27-1.44s-2.14-1.25-.72-2.54c0-.08.72,1,2-.54.07,0,1.34.1,1.51,1.9C496.61,171.91,502.41,181.73,502.41,181.73Z"></path><path id="Path_83" data-name="Path 83" class="cls-27" d="M501,168.18a4.19,4.19,0,0,1,0-2.87c-.09.09,1.23-1.58-2.28-3.34-.09-.28-2.09-4.78,0-4,0-.09,1.36-.83-.95-2-.11-.09-.85-1.11,0-3.89.16,0-.27-8.72-1.37-.47.21.1.84.75,0,3.06a5.24,5.24,0,0,0-.58,4.18c.17.18.62,3.43,1.67,6.67.08.1,2,4.34,2,4.34A1.34,1.34,0,0,0,501,168.18Z"></path><path id="Path_84" data-name="Path 84" class="cls-27" d="M494.92,168s-4.13-4.55-3.07-9.83a11.41,11.41,0,0,1-6.77-5.84,13.53,13.53,0,0,0,2.81,6.6s-2.54,2.47,1,3.6c-.18.09,2,1.94,1.14,3.89a6.82,6.82,0,0,1,2.52,2.32A1.82,1.82,0,0,0,494.92,168Z"></path><path id="Path_85" data-name="Path 85" class="cls-27" d="M493.34,157.43s4,16.43,10,24.3c.18,0-8.61-15.22-9.4-24.3C494,157.33,493.34,157.43,493.34,157.43Z"></path><path id="Path_86" data-name="Path 86" class="cls-28" d="M500.48,182.15c.59,0,0,.41,0,.41a4.17,4.17,0,0,0,.19,2.07,7.37,7.37,0,0,1,2.25.92,7.74,7.74,0,0,1,2.28,2.17,13.9,13.9,0,0,0,0,3.41,1.47,1.47,0,0,1-.09,1.05c-.21.36-.77.64-2.14.47a37.35,37.35,0,0,0-9.21,0,.82.82,0,0,1-.53-.1,1.48,1.48,0,0,1-.23-1.71L492.9,188a6.19,6.19,0,0,1,2.26-2.17c1.19-.64,2-.49,2.37-1.24s0-2.35-.47-2.35C496.08,182.2,499.89,182.15,500.48,182.15Z"></path><path id="Path_87" data-name="Path 87" class="cls-9" d="M498.35,186.27a5.13,5.13,0,0,0-1.88.49A5.82,5.82,0,0,0,494,189v1.67s5.14-1.21,8.86.09c.07,0,0-2.72,0-2.72a9,9,0,0,0-1.69-1A8.61,8.61,0,0,0,498.35,186.27Z"></path><path id="Path_88" data-name="Path 88" class="cls-29" d="M498.08,187a4.89,4.89,0,0,0-3,1.76s0,1.36,0,1.36h.14S495.33,188,498.08,187Z"></path><g id="Group_10" data-name="Group 10"><path id="Path_89" data-name="Path 89" d="M398.07,52.84a2.64,2.64,0,0,1,2.17-1.05h1.2q.09,0,.09-.12v-.31H403v4.26a.51.51,0,0,0,.15.37.59.59,0,0,0,.36.18h.6v1.36h-.6a2.4,2.4,0,0,1-1.09-.26,2.09,2.09,0,0,1-.66-.52,2.55,2.55,0,0,1-1.49.44,2.42,2.42,0,0,1-.71-.08,2.61,2.61,0,0,1-1.23-.72,2.52,2.52,0,0,1-.7-1.2,3,3,0,0,1-.09-.73A2.58,2.58,0,0,1,398.07,52.84Zm.17-3.13a.79.79,0,0,1,.61-.25.75.75,0,0,1,.6.25.72.72,0,0,1,.2.52.68.68,0,0,1-.2.52.74.74,0,0,1-.6.23.78.78,0,0,1-.6-.24.69.69,0,0,1-.19-.51.77.77,0,0,1,.18-.52Zm.75,5.15a1.18,1.18,0,0,0,.9.91,2,2,0,0,0,.35,0,1.34,1.34,0,0,0,.79-.29,1.25,1.25,0,0,0,.5-1V53.2l0,0h-1.33a1.34,1.34,0,0,0-1.31,1.3,1.76,1.76,0,0,0,.06.39Zm1.07-4.61a.76.76,0,0,1,.75-.77h.06a.75.75,0,0,1,.6.25.83.83,0,0,1,.19.52.81.81,0,0,1-.19.52.8.8,0,0,1-.6.23.75.75,0,0,1-.81-.75Z"></path><path id="Path_90" data-name="Path 90" d="M413.32,57.53h-1.46a4.28,4.28,0,0,1-2.78-.9,8.57,8.57,0,0,1-4.07.9h-1.33V56.17H405a7.1,7.1,0,0,0,3.08-.61l-.23-.37a3.68,3.68,0,0,0-.89-1,2,2,0,0,0-1-.22c-.27,0-.54,0-.8.06l-.45-1.18a8.67,8.67,0,0,1,3.2-1.29,6.17,6.17,0,0,1,1.13-.1,4,4,0,0,1,1.57.29,1.62,1.62,0,0,1,1.06,1.56v0a3.17,3.17,0,0,1-1.06,2.22l-.25.25a3,3,0,0,0,1.69.37h1.28Zm-4.54-4.73a5.18,5.18,0,0,0-1,.12,7.3,7.3,0,0,1,.57.55c.15.16.29.33.42.5l.33.48.25.39.25-.24a1.76,1.76,0,0,0,.59-1.23v-.12a.3.3,0,0,0,0-.1.39.39,0,0,0-.19-.17,1.89,1.89,0,0,0-.93-.18Z"></path><path id="Path_91" data-name="Path 91" d="M412.06,57.53V56.17h1.31l.21,0c.09,0,.14-.08.14-.15V54.72a3,3,0,1,1,3,2.94h0A2.43,2.43,0,0,1,414.8,57a1.68,1.68,0,0,1-.58.33,2.33,2.33,0,0,1-1,.19Zm3.18-2.81a1.64,1.64,0,0,0,.42,1.13,1.42,1.42,0,0,0,2,.06l.08-.08a1.53,1.53,0,0,0,.42-1.11,1.51,1.51,0,0,0-.44-1.14,1.4,1.4,0,0,0-2-.09.6.6,0,0,0-.08.08A1.69,1.69,0,0,0,415.24,54.72Z"></path><path id="Path_92" data-name="Path 92" d="M421.26,48.9h1.52v7q0,.24.21.24h1.44l0,1.36H423a1.71,1.71,0,0,1-1.23-.45,1.49,1.49,0,0,1-.47-1.15Z"></path><path id="Path_93" data-name="Path 93" d="M428.91,56.17a3.77,3.77,0,0,1-.27-1.75,1.46,1.46,0,0,0-.39-1,1.18,1.18,0,0,0-.92-.42A1.49,1.49,0,0,0,426,54l-1.26-.67A3.17,3.17,0,0,1,425.89,52a2.69,2.69,0,0,1,1.44-.39,2.64,2.64,0,0,1,2,.87,2.8,2.8,0,0,1,.82,2,2.18,2.18,0,0,0,.36,1.38,1.12,1.12,0,0,0,.91.31v1.36h-7.06V56.17Zm-1.18,2.1a.78.78,0,0,1,.64-.26.81.81,0,0,1,.85.77v0a.75.75,0,0,1-.21.55,1,1,0,0,1-1.28,0,.85.85,0,0,1-.2-.55.87.87,0,0,1,.2-.55Z"></path><path id="Path_94" data-name="Path 94" d="M399.66,65.39l.76,1.26a1.43,1.43,0,0,0-.82,1.24,1.25,1.25,0,0,0,.39.94,1.42,1.42,0,0,0,1,.38h3.69V65h1.51v4.2h1.63v1.36h-7a2.81,2.81,0,0,1-2-.8,2.51,2.51,0,0,1-.77-1.88A2.84,2.84,0,0,1,399.66,65.39ZM402,71.81a.78.78,0,0,1,.75-.81.14.14,0,0,1,.09,0,.79.79,0,0,1,.64.26.76.76,0,0,1,.21.55.7.7,0,0,1-.22.55.77.77,0,0,1-.63.24.81.81,0,0,1-.64-.24.75.75,0,0,1-.2-.55Z"></path><path id="Path_95" data-name="Path 95" d="M407.33,70.57V69.21h4.46v1.36Z"></path><path id="Path_96" data-name="Path 96" d="M411.26,70.57V69.21h4.46v1.36Z"></path><path id="Path_97" data-name="Path 97" d="M415.2,70.57V69.21h4.46v1.36Z"></path><path id="Path_98" data-name="Path 98" d="M419.29,69.21h1.64V61.93h1.51v5.35a2.85,2.85,0,0,0,.28,1.35,1.09,1.09,0,0,0,1,.58h.57v1.36h-.64a1.65,1.65,0,0,1-1.25-.35v.35h-3.15Z"></path><path id="Path_99" data-name="Path 99" d="M428.09,69.21a3.74,3.74,0,0,1-.27-1.75,1.47,1.47,0,0,0-.4-1,1.19,1.19,0,0,0-.91-.42,1.5,1.5,0,0,0-1.31,1l-1.27-.67a3.27,3.27,0,0,1,1.14-1.28,2.69,2.69,0,0,1,1.44-.39,2.65,2.65,0,0,1,2,.88,2.78,2.78,0,0,1,.82,2,2.12,2.12,0,0,0,.36,1.38,1.08,1.08,0,0,0,.9.31v1.36h-7.05V69.21Z"></path></g><g id="Group_11" data-name="Group 11"><path id="Path_100" data-name="Path 100" d="M403,90.78h-2.11V82.66l-2.52.78V81.73l4.4-1.58H403Z"></path><path id="Path_101" data-name="Path 101" d="M406.39,83.78a4,4,0,0,1,.46-1.92,3.3,3.3,0,0,1,1.27-1.35A3.5,3.5,0,0,1,410,80a3.33,3.33,0,0,1,1.86.53,3.46,3.46,0,0,1,1.27,1.51,5.43,5.43,0,0,1,.46,2.25v.78a6.13,6.13,0,0,1-1.32,4.17,5,5,0,0,1-3.74,1.62H408V89.13h.47q2.74-.12,3-2.58a2.67,2.67,0,0,1-1.92.81,2.87,2.87,0,0,1-2.26-1A3.82,3.82,0,0,1,406.39,83.78Zm2.1,0a2.41,2.41,0,0,0,.4,1.43,1.27,1.27,0,0,0,1.12.56,1.54,1.54,0,0,0,.88-.26,1.88,1.88,0,0,0,.55-.64V84a2.85,2.85,0,0,0-.4-1.66,1.29,1.29,0,0,0-1.1-.59,1.22,1.22,0,0,0-1,.58,2.42,2.42,0,0,0-.41,1.45Z"></path><path id="Path_102" data-name="Path 102" d="M415.1,87.83h2.08a1.55,1.55,0,0,0,.47,1,1.44,1.44,0,0,0,1,.37,1.28,1.28,0,0,0,1.1-.52,2.34,2.34,0,0,0,.39-1.45,2,2,0,0,0-.44-1.39,1.68,1.68,0,0,0-1.26-.48,1.8,1.8,0,0,0-1.22.4L417,86l-1.67-.42.61-5.39h5.95v1.75h-4.22l-.27,2.29a3.31,3.31,0,0,1,1.6-.41,3.09,3.09,0,0,1,2.38,1,3.75,3.75,0,0,1,.86,2.63,3.81,3.81,0,0,1-.44,1.84,3.07,3.07,0,0,1-1.24,1.26,3.87,3.87,0,0,1-1.91.45,4.24,4.24,0,0,1-1.79-.39,3.22,3.22,0,0,1-1.3-1.1A3,3,0,0,1,415.1,87.83Z"></path><path id="Path_103" data-name="Path 103" d="M424,86.34a3,3,0,0,1,1.22-1,2.62,2.62,0,0,1-1.06-1,2.47,2.47,0,0,1-.38-1.37,2.73,2.73,0,0,1,.9-2.16,4.16,4.16,0,0,1,4.91,0,2.72,2.72,0,0,1,.91,2.17,2.48,2.48,0,0,1-.39,1.37,2.72,2.72,0,0,1-1.06,1,3,3,0,0,1,1.22,1,2.63,2.63,0,0,1,.46,1.54,2.81,2.81,0,0,1-1,2.23,3.87,3.87,0,0,1-2.61.82,3.93,3.93,0,0,1-2.63-.82,2.78,2.78,0,0,1-1-2.24A2.69,2.69,0,0,1,424,86.34Zm2,2.47a1.64,1.64,0,0,0,2.17,0,1.75,1.75,0,0,0,0-2.22,1.61,1.61,0,0,0-2.15,0,1.72,1.72,0,0,0,0,2.2Zm.17-4.7a1.29,1.29,0,0,0,1.83,0h0a1.55,1.55,0,0,0,.32-1,1.43,1.43,0,0,0-.33-1,1.33,1.33,0,0,0-1.84,0,1.46,1.46,0,0,0-.33,1,1.51,1.51,0,0,0,.33,1Z"></path></g><path id="Path_104" data-name="Path 104" class="cls-30" d="M450.64,162.06c-.88-13-1.57-22.43-1.68-24.51a3.42,3.42,0,0,0-.94-2.27c-.5-.5-1.55-1.24-2.25-1s-.74,1.33-.75,1.95c-.08,3.78,1.21,24.39,1.37,26.89Z"></path><path id="Path_105" data-name="Path 105" class="cls-30" d="M441.88,164.22c-.88-13-1.57-22.42-1.69-24.51a8,8,0,0,0-.94-2.27c-.34-.62-1-1.77-1.38-1.68s-.44,2.09-.43,2.6c.09,3.33.14,13.09.19,26.95Z"></path><path id="Path_106" data-name="Path 106" class="cls-30" d="M461.68,157c-.8-11.65-1.4-20.13-1.47-21.1a3,3,0,0,0-.41-1.39,2.85,2.85,0,0,0-.53-.62c-.5-.44-1.55-1.1-2.25-.86s-.71,1.31-.75,1.72c-.28,3.36,1.26,21.32,1.52,24.2Z"></path><path id="Path_107" data-name="Path 107" class="cls-30" d="M470.23,150.26c-.73-10.17-1.29-17.58-1.36-18.43a2.5,2.5,0,0,0-.94-1.84,3,3,0,0,0-2.25-.78c-.64.19-.71,1.23-.75,1.57-.36,3.1,1.07,19.89,1.3,22.51Z"></path><path id="Path_108" data-name="Path 108" class="cls-30" d="M477.7,141.82l-2.49,3.27-1.13-.35c-.42-4.74-1.44-16.76-1-19.15.06-.3.16-1.21.75-1.37a3.35,3.35,0,0,1,2.26.69,2.68,2.68,0,0,1,.52.49,2.17,2.17,0,0,1,.41,1.1C477.07,127.28,477.37,133.41,477.7,141.82Z"></path><path id="Path_110" data-name="Path 110" class="cls-30" d="M475.21,144.75v.34l-1.13-.34Z"></path></g></g></g><g id="Layer_17" data-name="Layer 17"><g id="Group_28" data-name="Group 28"><rect id="Rectangle_38" data-name="Rectangle 38" class="cls-7" x="19.53" y="147.82" width="284.79" height="41.15" rx="1.71"></rect><g id="Group_26" data-name="Group 26"><path id="Path_122" data-name="Path 122" class="cls-7" d="M41.12,87.63a3.36,3.36,0,0,0,2.59-1,3,3,0,0,0,.9-2.24,3.23,3.23,0,0,0-.87-2.29A3.32,3.32,0,0,0,41.12,81a3.24,3.24,0,0,0-3.46,3,2.16,2.16,0,0,0,0,.36,3.13,3.13,0,0,0,.82,2.22A3.45,3.45,0,0,0,41.12,87.63Z"></path><path id="Path_123" data-name="Path 123" class="cls-7" d="M119,72.42q-1.48-1.8-1.48-5.66a11.37,11.37,0,0,0-3.36-8.15A10.92,10.92,0,0,0,106,55a11.2,11.2,0,0,0-5.92,1.62,12.91,12.91,0,0,0-4.65,5.25l5.19,2.74c1.39-2.68,3.19-4,5.38-4a4.87,4.87,0,0,1,3.75,1.72,6,6,0,0,1,1.63,4.21c0,3.59.37,6,1.11,7.19H94.75a4.58,4.58,0,0,1-4.3-2.4,11.43,11.43,0,0,1-1.13-5.53v-22H83.11V73.71H55V56.45h-6.2V73.71H33.69a5.89,5.89,0,0,1-4.29-1.59,5.16,5.16,0,0,1-1.59-3.86c0-2,1.12-3.72,3.38-5.07L28.05,58q-6.48,3.88-6.47,10.24A10.44,10.44,0,0,0,24.76,76a11.59,11.59,0,0,0,8.39,3.27H89.32V77.85c.73.88,2.23,1.35,4.47,1.42v0h29V73.71C121,73.71,119.72,73.28,119,72.42Z"></path><path id="Path_124" data-name="Path 124" class="cls-7" d="M155,52.49a3.2,3.2,0,0,0,2.46-1,3,3,0,0,0,.78-2.12A3.05,3.05,0,0,0,155,46.25a3.09,3.09,0,0,0-2.51,1,3.14,3.14,0,0,0,0,4.23A3.08,3.08,0,0,0,155,52.49Z"></path><path id="Path_125" data-name="Path 125" class="cls-7" d="M146.72,52.4a3.08,3.08,0,0,0,2.46-1,2.92,2.92,0,0,0,.83-2.11,3.16,3.16,0,0,0-3.29-3.16A3,3,0,0,0,143.45,49a1.93,1.93,0,0,0,0,.34,3,3,0,0,0,.78,2.09A3.22,3.22,0,0,0,146.72,52.4Z"></path><path id="Path_126" data-name="Path 126" class="cls-7" d="M239.76,55.6a12.13,12.13,0,0,0-12.2,12.05V72.9c0,.27-.19.46-.57.59a4.32,4.32,0,0,1-.87.17l-.66,0h-24.6q-4.74,0-6.93-1.5l1-1q4.35-4.44,4.36-9.11V62A6.66,6.66,0,0,0,195,55.56a15.94,15.94,0,0,0-6.43-1.2,27.7,27.7,0,0,0-4.64.42,34.77,34.77,0,0,0-13.14,5.31l1.83,4.84a25.56,25.56,0,0,1,3.27-.24,8.27,8.27,0,0,1,4.23.89,14.35,14.35,0,0,1,3.61,4.12l1,1.51q-4.93,2.42-12.66,2.5h-6.34a2.42,2.42,0,0,1-1.46-.74,2.1,2.1,0,0,1-.61-1.52V54h-5.88v1.28c0,.34-.12.5-.35.5h-5a11.19,11.19,0,0,0-11.26,11,12.18,12.18,0,0,0,.39,3,10.31,10.31,0,0,0,2.88,4.93,10.76,10.76,0,0,0,5,2.94,12.54,12.54,0,0,0,2.92.35,10.89,10.89,0,0,0,6.12-1.81,8.45,8.45,0,0,0,2.71,2.11,9.35,9.35,0,0,0,4.46,1.07H172q10-.09,16.71-3.68,4.08,3.48,11.42,3.68h25.34a9.22,9.22,0,0,0,4.17-.79A6.47,6.47,0,0,0,232,77.18q2.51,2.66,7.78,2.65a12.12,12.12,0,0,0,.12-24.23Zm-82,5.91v5.34a5.06,5.06,0,0,1-2.07,4.24,5.19,5.19,0,0,1-3.23,1.16,5.36,5.36,0,0,1-1.43-.2,4.85,4.85,0,0,1-3.71-3.75,6.32,6.32,0,0,1-.22-1.56,5.44,5.44,0,0,1,5.36-5.34h5c.34,0,.5,0,.5,0S157.82,61.48,157.72,61.51Zm35.41.61v.08a7.31,7.31,0,0,1-2.44,5.06c-.58.58-.93.91-1,1l-1-1.59-1.37-2a24,24,0,0,0-1.7-2.05c-1.47-1.47-2.25-2.21-2.33-2.24a19.3,19.3,0,0,1,4.24-.51l.9,0a8.24,8.24,0,0,1,3.81.74,1.65,1.65,0,0,1,.78.72,1.15,1.15,0,0,1,.11.39l0,.22Zm50.92,10.2a5.83,5.83,0,0,1-8.23.37l-.31-.31a6.67,6.67,0,0,1-1.72-4.64A6.8,6.8,0,0,1,235.51,63a5.77,5.77,0,0,1,8.16-.31l.34.33a6.58,6.58,0,0,1,1.8,4.69A6.34,6.34,0,0,1,244.05,72.32Z"></path><path id="Path_127" data-name="Path 127" class="cls-7" d="M265.49,79.29h34.69V73.71c-1.79,0-3-.43-3.73-1.29-1-1.2-1.48-3.09-1.48-5.66a11.36,11.36,0,0,0-3.35-8.15A10.93,10.93,0,0,0,283.45,55a11.16,11.16,0,0,0-5.93,1.61,12.9,12.9,0,0,0-4.64,5.25l5.19,2.74c1.39-2.68,3.18-4,5.38-4a4.85,4.85,0,0,1,3.74,1.72,6,6,0,0,1,1.64,4.21q0,5.39,1.11,7.19H265.62c-.58,0-.87-.33-.87-1V43.86H258.5V72.73a6.18,6.18,0,0,0,2,4.73A7,7,0,0,0,265.49,79.29Z"></path><path id="Path_128" data-name="Path 128" class="cls-7" d="M287.72,81.25a3.23,3.23,0,0,0-3.44,3c0,.11,0,.22,0,.34a3.2,3.2,0,0,0,.83,2.22,3.43,3.43,0,0,0,2.62,1,3.24,3.24,0,0,0,2.61-1,3,3,0,0,0,.9-2.22,3.36,3.36,0,0,0-3.51-3.36Z"></path><path id="Path_129" data-name="Path 129" class="cls-7" d="M34.37,105.67a2,2,0,0,0,.52-1.41,2.1,2.1,0,0,0-.51-1.41,2,2,0,0,0-1.65-.68,2,2,0,0,0-1.66.68,1.94,1.94,0,0,0-.53,1.41,1.9,1.9,0,0,0,.55,1.39,2,2,0,0,0,1.64.65A2.14,2.14,0,0,0,34.37,105.67Z"></path><path id="Path_130" data-name="Path 130" class="cls-7" d="M35.73,110.15A8.08,8.08,0,1,0,30,123.87a7.85,7.85,0,0,0,5.76-2.35,8,8,0,0,0,.06-11.31l-.06-.06Zm-2.91,8.78A3.75,3.75,0,0,1,30,120.17a3.69,3.69,0,0,1-2.79-1.24,4.72,4.72,0,0,1,0-6.19A3.66,3.66,0,0,1,30,111.49a3.76,3.76,0,0,1,2.85,1.25A4.68,4.68,0,0,1,32.82,118.93Z"></path><path id="Path_131" data-name="Path 131" class="cls-7" d="M28.87,105.61a1.88,1.88,0,0,0,.55-1.4,1.93,1.93,0,0,0-.55-1.42,2,2,0,0,0-1.63-.68A2,2,0,0,0,25.07,104v.23a2,2,0,0,0,.52,1.38,2.09,2.09,0,0,0,1.65.65A2,2,0,0,0,28.87,105.61Z"></path><path id="Path_132" data-name="Path 132" class="cls-7" d="M45.91,108.67H41.8V120.5q0,4.95-5.15,8.09l2,3.23q7.25-4.41,7.25-11.32Z"></path><path id="Path_133" data-name="Path 133" class="cls-7" d="M103,120.17H98.86c-1.06,0-1.68-.14-1.86-.43s-.31-.51-.41-.65a7.33,7.33,0,0,0,.54-2.88,8.1,8.1,0,0,0-16.2,0v3.45c0,.17-.12.3-.37.39a3.49,3.49,0,0,1-.54.12H76.41a2.21,2.21,0,0,1-1.77-.85,5.94,5.94,0,0,1-1-3.76,7.59,7.59,0,0,0-2.21-5.41A7.31,7.31,0,0,0,66,107.76a7.51,7.51,0,0,0-3.92,1.07A8.65,8.65,0,0,0,59,112.32l3.44,1.82c.93-1.79,2.11-2.68,3.56-2.68a3.23,3.23,0,0,1,2.49,1.15,4,4,0,0,1,1.08,2.79c0,2.38.25,4,.74,4.77H58a3,3,0,0,1-2.86-1.62,7.76,7.76,0,0,1-.74-3.69v-6.19H50.3V120.5q0,5-5.11,8.08l2,3.24q7.08-4.29,7.2-8.56c.23.37,1.42.57,3.56.61H79.54a6.27,6.27,0,0,0,2.77-.52,4.57,4.57,0,0,0,1.56-.88q1.66,1.75,5.16,1.76a6.88,6.88,0,0,0,5.22-1.85c.65,1,1.88,1.49,3.72,1.49h9.18v-23.5H103Zm-11.12-.93a3.87,3.87,0,0,1-5.47.25l-.2-.2a4.45,4.45,0,0,1-1.14-3.08,4.51,4.51,0,0,1,1.14-3.13,3.84,3.84,0,0,1,5.42-.2,2.28,2.28,0,0,1,.22.22,4.37,4.37,0,0,1,1.2,3.11A4.2,4.2,0,0,1,91.88,119.24Z"></path><rect id="Rectangle_39" data-name="Rectangle 39" class="cls-7" x="111.49" y="100.36" width="4.15" height="23.51"></rect><path id="Path_134" data-name="Path 134" class="cls-7" d="M140.48,105.78a2.21,2.21,0,0,0,1.75-3.7,2.55,2.55,0,0,0-3.47,0,2.2,2.2,0,0,0,1.72,3.7Z"></path><path id="Path_135" data-name="Path 135" class="cls-7" d="M147.57,105.1a2.23,2.23,0,0,0,0-3,2.3,2.3,0,0,0-1.74-.67,2.34,2.34,0,0,0-1.75.67,2.18,2.18,0,0,0,1.75,3.68A2.35,2.35,0,0,0,147.57,105.1Z"></path><path id="Path_136" data-name="Path 136" class="cls-7" d="M176.65,109.47a8.88,8.88,0,0,0-4-.93,11.09,11.09,0,0,0-2.63.34,22.39,22.39,0,0,0-7.32,3.45v-12H158.6v19.81h-2.82v0H151.3v-2.68c0-.71,0-1.26,0-1.64a8.1,8.1,0,1,0-13.84,5.66,7.84,7.84,0,0,0,5.71,2.39h3.76a8.27,8.27,0,0,1-13.21,2.44l0,0a7.94,7.94,0,0,1-2.41-5.85,8.88,8.88,0,0,1,1.44-4.74l-2.73-3a13,13,0,0,0-2.75,7.73,12.27,12.27,0,0,0,23.88,3.81,2.25,2.25,0,0,0,.09-.35H179.6v-9.15C179.6,112.19,178.61,110.44,176.65,109.47Zm-29.49,10.7h-4a3.75,3.75,0,0,1-2.86-1.26,4.5,4.5,0,0,1-1.12-3.09,4.37,4.37,0,0,1,1.16-3.08,3.82,3.82,0,0,1,5.65,0,4.33,4.33,0,0,1,1.16,3.08Zm28.3,0H162.72v-3.89q5.33-3.34,8.92-3.88a10.22,10.22,0,0,1,1.1-.1,7.81,7.81,0,0,1,1,.1,2.16,2.16,0,0,1,.55.16l.2.08.16.08a2.08,2.08,0,0,1,.85,2Z"></path><path id="Path_137" data-name="Path 137" class="cls-7" d="M199.62,106.25a2.32,2.32,0,0,0,0-3,2.21,2.21,0,0,0-1.73-.68,2.17,2.17,0,0,0-1.75.68,2.25,2.25,0,0,0,0,3,2.18,2.18,0,0,0,1.75.69A2.25,2.25,0,0,0,199.62,106.25Z"></path><path id="Path_138" data-name="Path 138" class="cls-7" d="M230.24,120.17H226.1c-1.06,0-1.68-.14-1.86-.43s-.31-.51-.41-.65a7.51,7.51,0,0,0,.54-2.88,8.1,8.1,0,0,0-16.2,0v3.45c0,.17-.13.3-.38.39a3.13,3.13,0,0,1-.53.12H204a3,3,0,0,1-2.85-1.59,7.57,7.57,0,0,1-.76-3.67v-6.19h-4.12v11.45h-7.62c-.38,0-.58-.22-.58-.65V100.36h-4.15v19.16a4.11,4.11,0,0,0,1.31,3.14,4.67,4.67,0,0,0,3.34,1.21H200.4v-1c.52.62,1.61.93,3.26,1h3.12a6.09,6.09,0,0,0,2.76-.52,4.19,4.19,0,0,0,1.56-.88q1.67,1.77,5.17,1.76a6.84,6.84,0,0,0,5.22-1.85c.64,1,1.88,1.49,3.71,1.49h9.19v-23.5h-4.15Zm-11.12-.93a3.87,3.87,0,0,1-5.47.25c-.07-.07-.14-.13-.2-.2a4.8,4.8,0,0,1,0-6.21,3.84,3.84,0,0,1,5.42-.2c.07.07.15.14.22.22a4.42,4.42,0,0,1,1.2,3.11,4.2,4.2,0,0,1-1.17,3Z"></path><rect id="Rectangle_40" data-name="Rectangle 40" class="cls-7" x="238.72" y="100.36" width="4.15" height="23.51"></rect><path id="Path_139" data-name="Path 139" class="cls-7" d="M269.18,131.9a2.36,2.36,0,0,0-1.75.66,2.18,2.18,0,0,0,1.75,3.69,2.32,2.32,0,0,0,1.73-.65,2.25,2.25,0,0,0,0-3A2.27,2.27,0,0,0,269.18,131.9Z"></path><path id="Path_140" data-name="Path 140" class="cls-7" d="M263.68,131.9a2.19,2.19,0,1,0,0,4.38,2.15,2.15,0,0,0,1.75-.69,2.25,2.25,0,0,0,0-3A2.17,2.17,0,0,0,263.68,131.9Z"></path><path id="Path_141" data-name="Path 141" class="cls-7" d="M293.15,106a2.1,2.1,0,0,0,2.29-2.18,2.34,2.34,0,0,0-.54-1.5,2.25,2.25,0,0,0-1.75-.7,2.18,2.18,0,0,0-1.73.67,2.32,2.32,0,0,0-.57,1.53,2.09,2.09,0,0,0,.55,1.49A2.19,2.19,0,0,0,293.15,106Z"></path><path id="Path_142" data-name="Path 142" class="cls-7" d="M301.25,115.85a8.1,8.1,0,0,0-16.19,0q0,3.08,1.14,4.32h-5.77a8.81,8.81,0,0,1-3.76-1.13c-.56-.31-1.2-.7-1.94-1.17l-3.58-2.5L269,118.52l1.48,1c1,.7,1.81,1.25,2.44,1.65a2.21,2.21,0,0,1,1,1.2,2.74,2.74,0,0,1,.17.94,2.88,2.88,0,0,1-.11.78,3.41,3.41,0,0,1-1.84,2.14,8.43,8.43,0,0,1-4,.85,12.84,12.84,0,0,1-5.87-1.3,6.26,6.26,0,0,1-3.25-3.18,3,3,0,0,1-.24-1.14q0-1.83,2.19-3.85l-2.66-2.8a11.13,11.13,0,0,0-3.2,4.65,7.38,7.38,0,0,0-.24,1.87,7.19,7.19,0,0,0,.5,2.63,9.55,9.55,0,0,0,4.79,5,16.65,16.65,0,0,0,8,1.87,12.24,12.24,0,0,0,6.28-1.49,7,7,0,0,0,3.4-4.24,7.5,7.5,0,0,0,.26-1.4v-.09a7.76,7.76,0,0,0,2.41.26h20.85Zm-4.12,4.32h-4a3.66,3.66,0,0,1-2.84-1.24,4.27,4.27,0,0,1-1.17-3.08,4.36,4.36,0,0,1,1.18-3.11,3.81,3.81,0,0,1,2.86-1.25,3.66,3.66,0,0,1,2.82,1.25,4.41,4.41,0,0,1,1.16,3.11Z"></path></g><g id="Group_27" data-name="Group 27"><path id="Path_143" data-name="Path 143" class="cls-1" d="M90.27,162.13a3.84,3.84,0,0,1,1.62-1.55,5.25,5.25,0,0,1,2.43-.56,4.64,4.64,0,0,1,3.14,1,3.45,3.45,0,0,1,1.15,2.77,4.63,4.63,0,0,1-.57,2.15,13.06,13.06,0,0,1-1.89,2.55l-3.35,3.57h6.35v1.83H90v-1.57l4.55-5a11.89,11.89,0,0,0,1.41-1.83,3,3,0,0,0,.41-1.48,2.22,2.22,0,0,0-.55-1.58,1.88,1.88,0,0,0-1.48-.6,2.19,2.19,0,0,0-1.71.67,2.71,2.71,0,0,0-.62,1.85H89.69A4.44,4.44,0,0,1,90.27,162.13Z"></path><path id="Path_144" data-name="Path 144" class="cls-1" d="M100.85,168.29v-2.37a7.38,7.38,0,0,1,1.1-4.42,4.62,4.62,0,0,1,6.72,0,7.17,7.17,0,0,1,1.13,4.3v2.37a7.43,7.43,0,0,1-1.11,4.45,4.53,4.53,0,0,1-6.69,0A7.11,7.11,0,0,1,100.85,168.29Zm2.81,3a1.79,1.79,0,0,0,1.68.94,1.76,1.76,0,0,0,1.62-.87,5.59,5.59,0,0,0,.56-2.72v-3.09a5.79,5.79,0,0,0-.53-2.82,2,2,0,0,0-2.79-.56,2,2,0,0,0-.52.52,5.23,5.23,0,0,0-.56,2.65v3.1A5.87,5.87,0,0,0,103.66,171.31Z"></path><path id="Path_145" data-name="Path 145" class="cls-1" d="M118,173.89h-2.28v-11l-3.35,1.14v-1.92l5.34-2H118Z"></path><path id="Path_146" data-name="Path 146" class="cls-1" d="M122.94,170.19h2.2a2.42,2.42,0,0,0,.72,1.53,2.12,2.12,0,0,0,1.52.53,2,2,0,0,0,1.64-.75,3.25,3.25,0,0,0,.58-2.05,2.87,2.87,0,0,0-.64-2,2.25,2.25,0,0,0-1.79-.73,2.47,2.47,0,0,0-2,.81l-1.82-.45.74-6.9h7.34v2H126l-.38,3.27a4.23,4.23,0,0,1,2.14-.54,3.79,3.79,0,0,1,3,1.25,5,5,0,0,1,1.09,3.36,4.56,4.56,0,0,1-1.21,3.32,4.39,4.39,0,0,1-3.29,1.23,4.64,4.64,0,0,1-3.12-1.06A3.86,3.86,0,0,1,122.94,170.19Z"></path><path id="Path_147" data-name="Path 147" class="cls-1" d="M138.94,175.13a3.06,3.06,0,0,1,.93-2.5,2,2,0,0,1,.82-.44,2.37,2.37,0,0,1,.7-.1h.14l.17,0a1.61,1.61,0,0,0,.38-.08c.25-.08.38-.23.38-.43v-2.25a4.83,4.83,0,0,1,1.48-3.54,4.94,4.94,0,0,1,3.61-1.48,5,5,0,0,1,5.07,5,4.26,4.26,0,0,1-.27,1.66A6.31,6.31,0,0,1,151,173a5.09,5.09,0,0,1-6.82,0c-.41.73-1.33,1.1-2.76,1.1a.38.38,0,0,0-.24.15,3.28,3.28,0,0,0-.05.83v5.62h-2.16Zm6.64-3.68a2.66,2.66,0,0,0,3.76.18,1.53,1.53,0,0,0,.18-.18,3.2,3.2,0,0,0,0-4.27,2.68,2.68,0,0,0-3.79-.15l-.15.15A3.22,3.22,0,0,0,145.58,171.45Z"></path><path id="Path_148" data-name="Path 148" class="cls-1" d="M155.88,159.23h2.32v12.25c0,.41.19.61.56.61h2.36l0,2h-2.44a2.87,2.87,0,0,1-2-.73,2.5,2.5,0,0,1-.79-1.91Z"></path><path id="Path_149" data-name="Path 149" class="cls-1" d="M160,172.09h3.71s.05,0,.05,0v0a1.32,1.32,0,0,0-.21-.45,4.8,4.8,0,0,1-.65-2.4,5.34,5.34,0,0,1,.19-1.38,5.1,5.1,0,0,1,6.31-3.47,5,5,0,0,1,3.15,2.55l-1.86,1.05a3.16,3.16,0,0,0-1.9-1.64,3,3,0,0,0-3.53,2,4.65,4.65,0,0,0-.06.75,3.39,3.39,0,0,0,.34,1.53,2.73,2.73,0,0,0,1.74,1.37,2.42,2.42,0,0,0,.75.1h4.43v2H160Z"></path><path id="Path_150" data-name="Path 150" class="cls-1" d="M182.84,165.41,184,167.3a2.56,2.56,0,0,0-1.39,2.26,2.43,2.43,0,0,0,.75,1.79,2.72,2.72,0,0,0,2,.74h6.71v-7.44h2.3v7.44h2.89v2H185.1a4.8,4.8,0,0,1-3.48-1.35,4.36,4.36,0,0,1-1.32-3.21A4.63,4.63,0,0,1,182.84,165.41Zm2.3-3.38a1.46,1.46,0,0,1,2,0,1.19,1.19,0,0,1,.33.86,1.21,1.21,0,0,1-.33.86,1.29,1.29,0,0,1-1,.35,1.25,1.25,0,0,1-1-.35,1.29,1.29,0,0,1,0-1.71Zm2.77.86a1.25,1.25,0,0,1,.31-.86,1.3,1.3,0,0,1,2.29.86,1.25,1.25,0,0,1-.31.86,1.35,1.35,0,0,1-1,.35,1.4,1.4,0,0,1-1-.35,1.25,1.25,0,0,1-.31-.86Z"></path><path id="Path_151" data-name="Path 151" class="cls-1" d="M195.42,174.12v-2h2.9v-7.44h2.31v9.47ZM196,161a1.3,1.3,0,0,1,1-.39,1.25,1.25,0,0,1,1,.38,1.23,1.23,0,0,1,.32.86,1.18,1.18,0,0,1-.32.85,1.26,1.26,0,0,1-1,.39,1.18,1.18,0,0,1-1.29-1.06,1.09,1.09,0,0,1,0-.18,1.38,1.38,0,0,1,.3-.85Zm1.56-2.55a1.24,1.24,0,0,1,1-.38,1.3,1.3,0,0,1,1,.38,1.23,1.23,0,0,1,.31.86,1.19,1.19,0,0,1-.31.84,1.28,1.28,0,0,1-1,.39,1.3,1.3,0,0,1-1-.39,1.28,1.28,0,0,1,0-1.7Zm1.55,2.53a1.26,1.26,0,0,1,1-.37,1.3,1.3,0,0,1,1,.38,1.25,1.25,0,0,1,0,1.76,1.29,1.29,0,0,1-1,.34,1.23,1.23,0,0,1-1-.38,1.35,1.35,0,0,1,0-1.73Z"></path><path id="Path_152" data-name="Path 152" class="cls-1" d="M204.39,174.12v-2h6.08v-1.25a7.28,7.28,0,0,0-.08-1,5.36,5.36,0,0,0-.33-1.25,6.2,6.2,0,0,0-2.56-2.74l1-1.91a9.59,9.59,0,0,1,3.18,3.06,7.23,7.23,0,0,1,1,2.7c.27,1.62,1.08,2.43,2.44,2.43h1.11v2h-1.11c-1.24,0-2-.19-2.34-.56v.56Z"></path><path id="Path_153" data-name="Path 153" class="cls-1" d="M223.12,172.09a6.46,6.46,0,0,1-.63-3.29,2.82,2.82,0,0,0-.75-1.93,2.29,2.29,0,0,0-1.76-.81,2.64,2.64,0,0,0-2.39,1.66l-1.91-1a4.94,4.94,0,0,1,1.84-2A4.81,4.81,0,0,1,220,164a4.57,4.57,0,0,1,3.39,1.5,4.7,4.7,0,0,1,1.39,3.38,3.92,3.92,0,0,0,.68,2.55,1.88,1.88,0,0,0,1.56.63v2H214.82v-2Z"></path><path id="Path_154" data-name="Path 154" class="cls-1" d="M230.56,157.16a.83.83,0,0,1-.06-.35,2,2,0,0,1,.09-.59,1.79,1.79,0,0,1,.86-1.08,1.76,1.76,0,0,1,.9-.24,1.81,1.81,0,0,1,.52.07,2.11,2.11,0,0,1,1.22,1.05l-1.23.68c-.16-.26-.28-.4-.39-.43l-.12,0a.34.34,0,0,0-.17.05.38.38,0,0,0-.19.26.77.77,0,0,0,0,.15.43.43,0,0,0,.06.22.4.4,0,0,0,.34.23h1.8v1.33H230v-1.33Zm.47,17V159.2h2.31v14.92Z"></path></g></g></g></g></svg> 